<svg version="1.1" xmlns="http://www.w3.org/2000/svg" xmlns:xlink="http://www.w3.org/1999/xlink" width="1068" height="860"><defs/><g><g transform="translate(-158,-22) scale(1,1)"><rect fill="#ffffff" stroke="none" x="704" y="32" width="512" height="21"/></g><g transform="translate(-158,-22) scale(1,1)"><path fill="none" stroke="#000000" d="M 704 32 L 1216 32 L 1216 53 L 704 53 L 704 32 Z Z" stroke-miterlimit="10" stroke-width="2"/></g><g transform="translate(-158,-22) scale(1,1)"><path fill="none" stroke="#000000" d="M 704 872 L 704 32 L 1216 32 L 1216 872" stroke-miterlimit="10" stroke-width="2"/></g><g transform="translate(-158,-22) scale(1,1)"><g><path fill="none" stroke="none"/><text fill="#000000" stroke="none" font-family="Arial" font-size="13px" font-style="normal" font-weight="normal" text-decoration="none" x="931.102294921875" y="49">Utilisateur</text></g></g><g transform="translate(-158,-22) scale(1,1)"><rect fill="#ffffff" stroke="none" x="168" y="32" width="504" height="21"/></g><g transform="translate(-158,-22) scale(1,1)"><path fill="none" stroke="#000000" d="M 168 32 L 672 32 L 672 53 L 168 53 L 168 32 Z Z" stroke-miterlimit="10" stroke-width="2"/></g><g transform="translate(-158,-22) scale(1,1)"><path fill="none" stroke="#000000" d="M 168 872 L 168 32 L 672 32 L 672 872" stroke-miterlimit="10" stroke-width="2"/></g><g transform="translate(-158,-22) scale(1,1)"><g><path fill="none" stroke="none"/><text fill="#000000" stroke="none" font-family="Arial" font-size="13px" font-style="normal" font-weight="normal" text-decoration="none" x="394.714111328125" y="49">Système</text></g></g><g transform="translate(-158,-22) scale(1,1)"><path fill="#C0C0C0" stroke="none" d="M 329 119 L 500.79345703125 119 Q 510.79345703125 119 510.79345703125 129 L 510.79345703125 149 Q 510.79345703125 159 500.79345703125 159 L 329 159 Q 319 159 319 149 L 319 129 Q 319 119 329 119 Z" opacity="0.2"/></g><g transform="translate(-158,-22) scale(1,1)"><path fill="#ffffff" stroke="none" d="M 322 112 L 493.79345703125 112 Q 503.79345703125 112 503.79345703125 122 L 503.79345703125 142 Q 503.79345703125 152 493.79345703125 152 L 322 152 Q 312 152 312 142 L 312 122 Q 312 112 322 112 Z"/></g><g transform="translate(-158,-22) scale(1,1)"><path fill="none" stroke="#000000" d="M 322 112 L 493.79345703125 112 Q 503.79345703125 112 503.79345703125 122 L 503.79345703125 142 Q 503.79345703125 152 493.79345703125 152 L 322 152 Q 312 152 312 142 L 312 122 Q 312 112 322 112 Z" stroke-miterlimit="10"/></g><g transform="translate(-158,-22) scale(1,1)"><g><path fill="none" stroke="none"/><text fill="#000000" stroke="none" font-family="Arial" font-size="13px" font-style="normal" font-weight="bold" text-decoration="none" x="323.714111328125" y="131.5">Affiche la liste des catégories</text></g></g><g transform="translate(-158,-22) scale(1,1)"><path fill="#C0C0C0" stroke="none" d="M 745 199 L 917 199 Q 927 199 927 209 L 927 229 Q 927 239 917 239 L 745 239 Q 735 239 735 229 L 735 209 Q 735 199 745 199 Z" opacity="0.2"/></g><g transform="translate(-158,-22) scale(1,1)"><path fill="#ffffff" stroke="none" d="M 738 192 L 910 192 Q 920 192 920 202 L 920 222 Q 920 232 910 232 L 738 232 Q 728 232 728 222 L 728 202 Q 728 192 738 192 Z"/></g><g transform="translate(-158,-22) scale(1,1)"><path fill="none" stroke="#000000" d="M 738 192 L 910 192 Q 920 192 920 202 L 920 222 Q 920 232 910 232 L 738 232 Q 728 232 728 222 L 728 202 Q 728 192 738 192 Z" stroke-miterlimit="10"/></g><g transform="translate(-158,-22) scale(1,1)"><g><path fill="none" stroke="none"/><text fill="#000000" stroke="none" font-family="Arial" font-size="13px" font-style="normal" font-weight="bold" text-decoration="none" x="748.834228515625" y="211.5">Sélectionne une catégorie</text></g></g><g transform="translate(-158,-22) scale(1,1)"><path fill="#C0C0C0" stroke="none" d="M 745 343 L 929.05712890625 343 Q 939.05712890625 343 939.05712890625 353 L 939.05712890625 373 Q 939.05712890625 383 929.05712890625 383 L 745 383 Q 735 383 735 373 L 735 353 Q 735 343 745 343 Z" opacity="0.2"/></g><g transform="translate(-158,-22) scale(1,1)"><path fill="#ffffff" stroke="none" d="M 738 336 L 922.05712890625 336 Q 932.05712890625 336 932.05712890625 346 L 932.05712890625 366 Q 932.05712890625 376 922.05712890625 376 L 738 376 Q 728 376 728 366 L 728 346 Q 728 336 738 336 Z"/></g><g transform="translate(-158,-22) scale(1,1)"><path fill="none" stroke="#000000" d="M 738 336 L 922.05712890625 336 Q 932.05712890625 336 932.05712890625 346 L 932.05712890625 366 Q 932.05712890625 376 922.05712890625 376 L 738 376 Q 728 376 728 366 L 728 346 Q 728 336 738 336 Z" stroke-miterlimit="10"/></g><g transform="translate(-158,-22) scale(1,1)"><g><path fill="none" stroke="none"/><text fill="#000000" stroke="none" font-family="Arial" font-size="13px" font-style="normal" font-weight="bold" text-decoration="none" x="739.326904296875" y="355.5">Sélectionne une sous catégorie</text></g></g><g transform="translate(-158,-22) scale(1,1)"><path fill="#C0C0C0" stroke="none" d="M 769 567 L 916.18359375 567 Q 926.18359375 567 926.18359375 577 L 926.18359375 597 Q 926.18359375 607 916.18359375 607 L 769 607 Q 759 607 759 597 L 759 577 Q 759 567 769 567 Z" opacity="0.2"/></g><g transform="translate(-158,-22) scale(1,1)"><path fill="#ffffff" stroke="none" d="M 762 560 L 909.18359375 560 Q 919.18359375 560 919.18359375 570 L 919.18359375 590 Q 919.18359375 600 909.18359375 600 L 762 600 Q 752 600 752 590 L 752 570 Q 752 560 762 560 Z"/></g><g transform="translate(-158,-22) scale(1,1)"><path fill="none" stroke="#000000" d="M 762 560 L 909.18359375 560 Q 919.18359375 560 919.18359375 570 L 919.18359375 590 Q 919.18359375 600 909.18359375 600 L 762 600 Q 752 600 752 590 L 752 570 Q 752 560 762 560 Z" stroke-miterlimit="10"/></g><g transform="translate(-158,-22) scale(1,1)"><g><path fill="none" stroke="none"/><text fill="#000000" stroke="none" font-family="Arial" font-size="13px" font-style="normal" font-weight="bold" text-decoration="none" x="762.235107421875" y="579.5">Sélectionne un document</text></g></g><g transform="translate(-158,-22) scale(1,1)"><path fill="#C0C0C0" stroke="none" d="M 785 743 L 891.72998046875 743 Q 901.72998046875 743 901.72998046875 753 L 901.72998046875 773 Q 901.72998046875 783 891.72998046875 783 L 785 783 Q 775 783 775 773 L 775 753 Q 775 743 785 743 Z" opacity="0.2"/></g><g transform="translate(-158,-22) scale(1,1)"><path fill="#ffffff" stroke="none" d="M 778 736 L 884.72998046875 736 Q 894.72998046875 736 894.72998046875 746 L 894.72998046875 766 Q 894.72998046875 776 884.72998046875 776 L 778 776 Q 768 776 768 766 L 768 746 Q 768 736 778 736 Z"/></g><g transform="translate(-158,-22) scale(1,1)"><path fill="none" stroke="#000000" d="M 778 736 L 884.72998046875 736 Q 894.72998046875 736 894.72998046875 746 L 894.72998046875 766 Q 894.72998046875 776 884.72998046875 776 L 778 776 Q 768 776 768 766 L 768 746 Q 768 736 778 736 Z" stroke-miterlimit="10"/></g><g transform="translate(-158,-22) scale(1,1)"><g><path fill="none" stroke="none"/><text fill="#000000" stroke="none" font-family="Arial" font-size="13px" font-style="normal" font-weight="bold" text-decoration="none" x="776.806884765625" y="755.5">Quitte le document</text></g></g><g transform="translate(-158,-22) scale(1,1)"><path fill="#C0C0C0" stroke="none" d="M 823 136.5 L 834.5 127 L 845 136.5 L 834.5 145 L 823 136.5" opacity="0.2"/></g><g transform="translate(-158,-22) scale(1,1)"><path fill="#ffffff" stroke="none" d="M 816 129 L 827 120 L 838 129 L 827 138 L 816 129"/></g><g transform="translate(-158,-22) scale(1,1)"><path fill="none" stroke="#000000" d="M 816 129 L 827 120 L 838 129 L 827 138 L 816 129 L 816 129" stroke-miterlimit="10"/></g><g transform="translate(-158,-22) scale(1,1)"><path fill="#C0C0C0" stroke="none" d="M 969 119 L 1090.89453125 119 Q 1100.89453125 119 1100.89453125 129 L 1100.89453125 149 Q 1100.89453125 159 1090.89453125 159 L 969 159 Q 959 159 959 149 L 959 129 Q 959 119 969 119 Z" opacity="0.2"/></g><g transform="translate(-158,-22) scale(1,1)"><path fill="#ffffff" stroke="none" d="M 962 112 L 1083.89453125 112 Q 1093.89453125 112 1093.89453125 122 L 1093.89453125 142 Q 1093.89453125 152 1083.89453125 152 L 962 152 Q 952 152 952 142 L 952 122 Q 952 112 962 112 Z"/></g><g transform="translate(-158,-22) scale(1,1)"><path fill="none" stroke="#000000" d="M 962 112 L 1083.89453125 112 Q 1093.89453125 112 1093.89453125 122 L 1093.89453125 142 Q 1093.89453125 152 1083.89453125 152 L 962 152 Q 952 152 952 142 L 952 122 Q 952 112 962 112 Z" stroke-miterlimit="10"/></g><g transform="translate(-158,-22) scale(1,1)"><g><path fill="none" stroke="none"/><text fill="#000000" stroke="none" font-family="Arial" font-size="13px" font-style="normal" font-weight="bold" text-decoration="none" x="962.24462890625" y="131.5">Quitte la consultation</text></g></g><g transform="translate(-158,-22) scale(1,1)"><path fill="#C0C0C0" stroke="none" d="M 305 647 L 475.29541015625 647 Q 485.29541015625 647 485.29541015625 657 L 485.29541015625 677 Q 485.29541015625 687 475.29541015625 687 L 305 687 Q 295 687 295 677 L 295 657 Q 295 647 305 647 Z" opacity="0.2"/></g><g transform="translate(-158,-22) scale(1,1)"><path fill="#ffffff" stroke="none" d="M 298 640 L 468.29541015625 640 Q 478.29541015625 640 478.29541015625 650 L 478.29541015625 670 Q 478.29541015625 680 468.29541015625 680 L 298 680 Q 288 680 288 670 L 288 650 Q 288 640 298 640 Z"/></g><g transform="translate(-158,-22) scale(1,1)"><path fill="none" stroke="#000000" d="M 298 640 L 468.29541015625 640 Q 478.29541015625 640 478.29541015625 650 L 478.29541015625 670 Q 478.29541015625 680 468.29541015625 680 L 298 680 Q 288 680 288 670 L 288 650 Q 288 640 298 640 Z" stroke-miterlimit="10"/></g><g transform="translate(-158,-22) scale(1,1)"><g><path fill="none" stroke="none"/><text fill="#000000" stroke="none" font-family="Arial" font-size="13px" font-style="normal" font-weight="bold" text-decoration="none" x="299.67919921875" y="659.5">Affiche le détail du document</text></g></g><g transform="translate(-158,-22) scale(1,1)"><path fill="#C0C0C0" stroke="none" d="M 225 423 L 352.6962890625 423 Q 362.6962890625 423 362.6962890625 433 L 362.6962890625 453 Q 362.6962890625 463 352.6962890625 463 L 225 463 Q 215 463 215 453 L 215 433 Q 215 423 225 423 Z" opacity="0.2"/></g><g transform="translate(-158,-22) scale(1,1)"><path fill="#ffffff" stroke="none" d="M 218 416 L 345.6962890625 416 Q 355.6962890625 416 355.6962890625 426 L 355.6962890625 446 Q 355.6962890625 456 345.6962890625 456 L 218 456 Q 208 456 208 446 L 208 426 Q 208 416 218 416 Z"/></g><g transform="translate(-158,-22) scale(1,1)"><path fill="none" stroke="#000000" d="M 218 416 L 345.6962890625 416 Q 355.6962890625 416 355.6962890625 426 L 355.6962890625 446 Q 355.6962890625 456 345.6962890625 456 L 218 456 Q 208 456 208 446 L 208 426 Q 208 416 218 416 Z" stroke-miterlimit="10"/></g><g transform="translate(-158,-22) scale(1,1)"><g><path fill="none" stroke="none"/><text fill="#000000" stroke="none" font-family="Arial" font-size="13px" font-style="normal" font-weight="bold" text-decoration="none" x="218.260498046875" y="435.5">Affiche les documents</text></g></g><g transform="translate(-158,-22) scale(1,1)"><path fill="#C0C0C0" stroke="none" d="M 313 199 L 518.7470703125 199 Q 528.7470703125 199 528.7470703125 209 L 528.7470703125 229 Q 528.7470703125 239 518.7470703125 239 L 313 239 Q 303 239 303 229 L 303 209 Q 303 199 313 199 Z" opacity="0.2"/></g><g transform="translate(-158,-22) scale(1,1)"><path fill="#ffffff" stroke="none" d="M 306 192 L 511.7470703125 192 Q 521.7470703125 192 521.7470703125 202 L 521.7470703125 222 Q 521.7470703125 232 511.7470703125 232 L 306 232 Q 296 232 296 222 L 296 202 Q 296 192 306 192 Z"/></g><g transform="translate(-158,-22) scale(1,1)"><path fill="none" stroke="#000000" d="M 306 192 L 511.7470703125 192 Q 521.7470703125 192 521.7470703125 202 L 521.7470703125 222 Q 521.7470703125 232 511.7470703125 232 L 306 232 Q 296 232 296 222 L 296 202 Q 296 192 306 192 Z" stroke-miterlimit="10"/></g><g transform="translate(-158,-22) scale(1,1)"><g><path fill="none" stroke="none"/><text fill="#000000" stroke="none" font-family="Arial" font-size="13px" font-style="normal" font-weight="bold" text-decoration="none" x="309.155029296875" y="211.5">Affiche la liste des sous catégories</text></g></g><g transform="translate(-158,-22) scale(1,1)"><path fill="#C0C0C0" stroke="none" d="M 969 271 L 1090.89453125 271 Q 1100.89453125 271 1100.89453125 281 L 1100.89453125 301 Q 1100.89453125 311 1090.89453125 311 L 969 311 Q 959 311 959 301 L 959 281 Q 959 271 969 271 Z" opacity="0.2"/></g><g transform="translate(-158,-22) scale(1,1)"><path fill="#ffffff" stroke="none" d="M 962 264 L 1083.89453125 264 Q 1093.89453125 264 1093.89453125 274 L 1093.89453125 294 Q 1093.89453125 304 1083.89453125 304 L 962 304 Q 952 304 952 294 L 952 274 Q 952 264 962 264 Z"/></g><g transform="translate(-158,-22) scale(1,1)"><path fill="none" stroke="#000000" d="M 962 264 L 1083.89453125 264 Q 1093.89453125 264 1093.89453125 274 L 1093.89453125 294 Q 1093.89453125 304 1083.89453125 304 L 962 304 Q 952 304 952 294 L 952 274 Q 952 264 962 264 Z" stroke-miterlimit="10"/></g><g transform="translate(-158,-22) scale(1,1)"><g><path fill="none" stroke="none"/><text fill="#000000" stroke="none" font-family="Arial" font-size="13px" font-style="normal" font-weight="bold" text-decoration="none" x="962.24462890625" y="283.5">Quitte la consultation</text></g></g><g transform="translate(-158,-22) scale(1,1)"><path fill="#C0C0C0" stroke="none" d="M 823 288.5 L 834.5 279 L 845 288.5 L 834.5 297 L 823 288.5" opacity="0.2"/></g><g transform="translate(-158,-22) scale(1,1)"><path fill="#ffffff" stroke="none" d="M 816 281 L 827 272 L 838 281 L 827 290 L 816 281"/></g><g transform="translate(-158,-22) scale(1,1)"><path fill="none" stroke="#000000" d="M 816 281 L 827 272 L 838 281 L 827 290 L 816 281 L 816 281" stroke-miterlimit="10"/></g><g transform="translate(-158,-22) scale(1,1)"><path fill="#C0C0C0" stroke="none" d="M 409 423 L 639.96630859375 423 Q 649.96630859375 423 649.96630859375 433 L 649.96630859375 453 Q 649.96630859375 463 639.96630859375 463 L 409 463 Q 399 463 399 453 L 399 433 Q 399 423 409 423 Z" opacity="0.2"/></g><g transform="translate(-158,-22) scale(1,1)"><path fill="#ffffff" stroke="none" d="M 402 416 L 632.96630859375 416 Q 642.96630859375 416 642.96630859375 426 L 642.96630859375 446 Q 642.96630859375 456 632.96630859375 456 L 402 456 Q 392 456 392 446 L 392 426 Q 392 416 402 416 Z"/></g><g transform="translate(-158,-22) scale(1,1)"><path fill="none" stroke="#000000" d="M 402 416 L 632.96630859375 416 Q 642.96630859375 416 642.96630859375 426 L 642.96630859375 446 Q 642.96630859375 456 632.96630859375 456 L 402 456 Q 392 456 392 446 L 392 426 Q 392 416 402 416 Z" stroke-miterlimit="10"/></g><g transform="translate(-158,-22) scale(1,1)"><g><path fill="none" stroke="none"/><text fill="#000000" stroke="none" font-family="Arial" font-size="13px" font-style="normal" font-weight="bold" text-decoration="none" x="416.3046875" y="435.5">Propose une création de document</text></g></g><g transform="translate(-158,-22) scale(1,1)"><path fill="#C0C0C0" stroke="none" d="M 362 359 L 425 359 Q 428 359 428 362 L 428 361 Q 428 364 425 364 L 362 364 Q 359 364 359 361 L 359 362 Q 359 359 362 359 Z" opacity="0.2"/></g><g transform="translate(-158,-22) scale(1,1)"><path fill="#000000" stroke="none" d="M 355 352 L 418 352 Q 421 352 421 355 L 421 355 Q 421 358 418 358 L 355 358 Q 352 358 352 355 L 352 355 Q 352 352 355 352 Z"/></g><g transform="translate(-158,-22) scale(1,1)"><path fill="#C0C0C0" stroke="none" d="M 785 423 L 895.3544921875 423 Q 905.3544921875 423 905.3544921875 433 L 905.3544921875 453 Q 905.3544921875 463 895.3544921875 463 L 785 463 Q 775 463 775 453 L 775 433 Q 775 423 785 423 Z" opacity="0.2"/></g><g transform="translate(-158,-22) scale(1,1)"><path fill="#ffffff" stroke="none" d="M 778 416 L 888.3544921875 416 Q 898.3544921875 416 898.3544921875 426 L 898.3544921875 446 Q 898.3544921875 456 888.3544921875 456 L 778 456 Q 768 456 768 446 L 768 426 Q 768 416 778 416 Z"/></g><g transform="translate(-158,-22) scale(1,1)"><path fill="none" stroke="#000000" d="M 778 416 L 888.3544921875 416 Q 898.3544921875 416 898.3544921875 426 L 898.3544921875 446 Q 898.3544921875 456 888.3544921875 456 L 778 456 Q 768 456 768 446 L 768 426 Q 768 416 778 416 Z" stroke-miterlimit="10"/></g><g transform="translate(-158,-22) scale(1,1)"><g><path fill="none" stroke="none"/><text fill="#000000" stroke="none" font-family="Arial" font-size="13px" font-style="normal" font-weight="bold" text-decoration="none" x="776.08642578125" y="435.5">Créée un document</text></g></g><g transform="translate(-158,-22) scale(1,1)"><path fill="#C0C0C0" stroke="none" d="M 823 520.5 L 834.5 511 L 845 520.5 L 834.5 529 L 823 520.5" opacity="0.2"/></g><g transform="translate(-158,-22) scale(1,1)"><path fill="#ffffff" stroke="none" d="M 816 513 L 827 504 L 838 513 L 827 522 L 816 513"/></g><g transform="translate(-158,-22) scale(1,1)"><path fill="none" stroke="#000000" d="M 816 513 L 827 504 L 838 513 L 827 522 L 816 513 L 816 513" stroke-miterlimit="10"/></g><g transform="translate(-158,-22) scale(1,1)"><path fill="#C0C0C0" stroke="none" d="M 969 503 L 1090.89453125 503 Q 1100.89453125 503 1100.89453125 513 L 1100.89453125 533 Q 1100.89453125 543 1090.89453125 543 L 969 543 Q 959 543 959 533 L 959 513 Q 959 503 969 503 Z" opacity="0.2"/></g><g transform="translate(-158,-22) scale(1,1)"><path fill="#ffffff" stroke="none" d="M 962 496 L 1083.89453125 496 Q 1093.89453125 496 1093.89453125 506 L 1093.89453125 526 Q 1093.89453125 536 1083.89453125 536 L 962 536 Q 952 536 952 526 L 952 506 Q 952 496 962 496 Z"/></g><g transform="translate(-158,-22) scale(1,1)"><path fill="none" stroke="#000000" d="M 962 496 L 1083.89453125 496 Q 1093.89453125 496 1093.89453125 506 L 1093.89453125 526 Q 1093.89453125 536 1083.89453125 536 L 962 536 Q 952 536 952 526 L 952 506 Q 952 496 962 496 Z" stroke-miterlimit="10"/></g><g transform="translate(-158,-22) scale(1,1)"><g><path fill="none" stroke="none"/><text fill="#000000" stroke="none" font-family="Arial" font-size="13px" font-style="normal" font-weight="bold" text-decoration="none" x="962.24462890625" y="515.5">Quitte la consultation</text></g></g><g transform="translate(-158,-22) scale(1,1)"><path fill="#C0C0C0" stroke="none" d="M 823 672.5 L 834.5 663 L 845 672.5 L 834.5 681 L 823 672.5" opacity="0.2"/></g><g transform="translate(-158,-22) scale(1,1)"><path fill="#ffffff" stroke="none" d="M 816 665 L 827 656 L 838 665 L 827 674 L 816 665"/></g><g transform="translate(-158,-22) scale(1,1)"><path fill="none" stroke="#000000" d="M 816 665 L 827 656 L 838 665 L 827 674 L 816 665 L 816 665" stroke-miterlimit="10"/></g><g transform="translate(-158,-22) scale(1,1)"><path fill="#C0C0C0" stroke="none" d="M 985 655 L 1091.01904296875 655 Q 1101.01904296875 655 1101.01904296875 665 L 1101.01904296875 685 Q 1101.01904296875 695 1091.01904296875 695 L 985 695 Q 975 695 975 685 L 975 665 Q 975 655 985 655 Z" opacity="0.2"/></g><g transform="translate(-158,-22) scale(1,1)"><path fill="#ffffff" stroke="none" d="M 978 648 L 1084.01904296875 648 Q 1094.01904296875 648 1094.01904296875 658 L 1094.01904296875 678 Q 1094.01904296875 688 1084.01904296875 688 L 978 688 Q 968 688 968 678 L 968 658 Q 968 648 978 648 Z"/></g><g transform="translate(-158,-22) scale(1,1)"><path fill="none" stroke="#000000" d="M 978 648 L 1084.01904296875 648 Q 1094.01904296875 648 1094.01904296875 658 L 1094.01904296875 678 Q 1094.01904296875 688 1084.01904296875 688 L 978 688 Q 968 688 968 678 L 968 658 Q 968 648 978 648 Z" stroke-miterlimit="10"/></g><g transform="translate(-158,-22) scale(1,1)"><g><path fill="none" stroke="none"/><text fill="#000000" stroke="none" font-family="Arial" font-size="13px" font-style="normal" font-weight="bold" text-decoration="none" x="978.977783203125" y="667.5">Édite le document</text></g></g><g transform="translate(-158,-22) scale(1,1)"><path fill="#C0C0C0" stroke="none" d="M 1151 139.5 C 1151 132.59644 1156.59644 127 1163.5 127 C 1170.40356 127 1176 132.59644 1176 139.5 C 1176 146.40356 1170.40356 152 1163.5 152 C 1156.59644 152 1151 146.40356 1151 139.5 Z" opacity="0.2"/></g><g transform="translate(-158,-22) scale(1,1)"><path fill="none" stroke="#000000" d="M 1144 132.5 C 1144 125.59644 1149.59644 120 1156.5 120 C 1163.40356 120 1169 125.59644 1169 132.5 C 1169 139.40356 1163.40356 145 1156.5 145 C 1149.59644 145 1144 139.40356 1144 132.5 Z" stroke-miterlimit="10"/></g><g transform="translate(-158,-22) scale(1,1)"><path fill="#000000" stroke="none" d="M 1149 132.5 C 1149 128.357864 1152.357864 125 1156.5 125 C 1160.642136 125 1164 128.357864 1164 132.5 C 1164 136.642136 1160.642136 140 1156.5 140 C 1152.357864 140 1149 136.642136 1149 132.5 Z"/></g><g transform="translate(-158,-22) scale(1,1)"><path fill="#C0C0C0" stroke="none" d="M 1151 291.5 C 1151 284.59644 1156.59644 279 1163.5 279 C 1170.40356 279 1176 284.59644 1176 291.5 C 1176 298.40356 1170.40356 304 1163.5 304 C 1156.59644 304 1151 298.40356 1151 291.5 Z" opacity="0.2"/></g><g transform="translate(-158,-22) scale(1,1)"><path fill="none" stroke="#000000" d="M 1144 284.5 C 1144 277.59644 1149.59644 272 1156.5 272 C 1163.40356 272 1169 277.59644 1169 284.5 C 1169 291.40356 1163.40356 297 1156.5 297 C 1149.59644 297 1144 291.40356 1144 284.5 Z" stroke-miterlimit="10"/></g><g transform="translate(-158,-22) scale(1,1)"><path fill="#000000" stroke="none" d="M 1149 284.5 C 1149 280.357864 1152.357864 277 1156.5 277 C 1160.642136 277 1164 280.357864 1164 284.5 C 1164 288.642136 1160.642136 292 1156.5 292 C 1152.357864 292 1149 288.642136 1149 284.5 Z"/></g><g transform="translate(-158,-22) scale(1,1)"><path fill="#C0C0C0" stroke="none" d="M 1151 523.5 C 1151 516.59644 1156.59644 511 1163.5 511 C 1170.40356 511 1176 516.59644 1176 523.5 C 1176 530.40356 1170.40356 536 1163.5 536 C 1156.59644 536 1151 530.40356 1151 523.5 Z" opacity="0.2"/></g><g transform="translate(-158,-22) scale(1,1)"><path fill="none" stroke="#000000" d="M 1144 516.5 C 1144 509.59644 1149.59644 504 1156.5 504 C 1163.40356 504 1169 509.59644 1169 516.5 C 1169 523.40356 1163.40356 529 1156.5 529 C 1149.59644 529 1144 523.40356 1144 516.5 Z" stroke-miterlimit="10"/></g><g transform="translate(-158,-22) scale(1,1)"><path fill="#000000" stroke="none" d="M 1149 516.5 C 1149 512.357864 1152.357864 509 1156.5 509 C 1160.642136 509 1164 512.357864 1164 516.5 C 1164 520.642136 1160.642136 524 1156.5 524 C 1152.357864 524 1149 520.642136 1149 516.5 Z"/></g><g transform="translate(-158,-22) scale(1,1)"><path fill="#C0C0C0" stroke="none" d="M 959 443.5 C 959 436.59644 964.59644 431 971.5 431 C 978.40356 431 984 436.59644 984 443.5 C 984 450.40356 978.40356 456 971.5 456 C 964.59644 456 959 450.40356 959 443.5 Z" opacity="0.2"/></g><g transform="translate(-158,-22) scale(1,1)"><path fill="none" stroke="#000000" d="M 952 436.5 C 952 429.59644 957.59644 424 964.5 424 C 971.40356 424 977 429.59644 977 436.5 C 977 443.40356 971.40356 449 964.5 449 C 957.59644 449 952 443.40356 952 436.5 Z" stroke-miterlimit="10"/></g><g transform="translate(-158,-22) scale(1,1)"><path fill="#000000" stroke="none" d="M 957 436.5 C 957 432.357864 960.357864 429 964.5 429 C 968.642136 429 972 432.357864 972 436.5 C 972 440.642136 968.642136 444 964.5 444 C 960.357864 444 957 440.642136 957 436.5 Z"/></g><g transform="translate(-158,-22) scale(1,1)"><path fill="#C0C0C0" stroke="none" d="M 1151 675.5 C 1151 668.59644 1156.59644 663 1163.5 663 C 1170.40356 663 1176 668.59644 1176 675.5 C 1176 682.40356 1170.40356 688 1163.5 688 C 1156.59644 688 1151 682.40356 1151 675.5 Z" opacity="0.2"/></g><g transform="translate(-158,-22) scale(1,1)"><path fill="none" stroke="#000000" d="M 1144 668.5 C 1144 661.59644 1149.59644 656 1156.5 656 C 1163.40356 656 1169 661.59644 1169 668.5 C 1169 675.40356 1163.40356 681 1156.5 681 C 1149.59644 681 1144 675.40356 1144 668.5 Z" stroke-miterlimit="10"/></g><g transform="translate(-158,-22) scale(1,1)"><path fill="#000000" stroke="none" d="M 1149 668.5 C 1149 664.357864 1152.357864 661 1156.5 661 C 1160.642136 661 1164 664.357864 1164 668.5 C 1164 672.642136 1160.642136 676 1156.5 676 C 1152.357864 676 1149 672.642136 1149 668.5 Z"/></g><g transform="translate(-158,-22) scale(1,1)"><path fill="#C0C0C0" stroke="none" d="M 823 843.5 C 823 836.59644 828.59644 831 835.5 831 C 842.40356 831 848 836.59644 848 843.5 C 848 850.40356 842.40356 856 835.5 856 C 828.59644 856 823 850.40356 823 843.5 Z" opacity="0.2"/></g><g transform="translate(-158,-22) scale(1,1)"><path fill="none" stroke="#000000" d="M 816 836.5 C 816 829.59644 821.59644 824 828.5 824 C 835.40356 824 841 829.59644 841 836.5 C 841 843.40356 835.40356 849 828.5 849 C 821.59644 849 816 843.40356 816 836.5 Z" stroke-miterlimit="10"/></g><g transform="translate(-158,-22) scale(1,1)"><path fill="#000000" stroke="none" d="M 821 836.5 C 821 832.357864 824.357864 829 828.5 829 C 832.642136 829 836 832.357864 836 836.5 C 836 840.642136 832.642136 844 828.5 844 C 824.357864 844 821 840.642136 821 836.5 Z"/></g><g transform="translate(-158,-22) scale(1,1)"><path fill="#C0C0C0" stroke="none" d="M 407 80.5 C 407 75.2532944 411.2532944 71 416.5 71 C 421.7467056 71 426 75.2532944 426 80.5 C 426 85.7467056 421.7467056 90 416.5 90 C 411.2532944 90 407 85.7467056 407 80.5 Z" opacity="0.2"/></g><g transform="translate(-158,-22) scale(1,1)"><path fill="#000000" stroke="none" d="M 400 73.5 C 400 68.2532944 404.2532944 64 409.5 64 C 414.7467056 64 419 68.2532944 419 73.5 C 419 78.7467056 414.7467056 83 409.5 83 C 404.2532944 83 400 78.7467056 400 73.5 Z"/></g><g transform="translate(-158,-22) scale(1,1)"><path fill="none" stroke="#000000" d="M 409 84 L 408 111" stroke-miterlimit="10"/></g><g transform="translate(-158,-22) scale(1,1)"><path fill="none" stroke="#000000" d="M 404.1695039351113 100.68848702193164 L 408 111 L 412.58277100829406 101.00008950612359" stroke-miterlimit="10"/></g><g transform="translate(-158,-22) scale(1,1)"><path fill="none" stroke="#000000" d="M 505 131 L 815 129" stroke-miterlimit="10"/></g><g transform="translate(-158,-22) scale(1,1)"><path fill="none" stroke="#000000" d="M 804.8646942517338 133.2749944314773 L 815 129 L 804.8103790239696 124.8561341280343" stroke-miterlimit="10"/></g><g transform="translate(-158,-22) scale(1,1)"><path fill="none" stroke="#000000" d="M 839 129 L 951 131" stroke-miterlimit="10"/></g><g transform="translate(-158,-22) scale(1,1)"><path fill="none" stroke="#000000" d="M 940.7637871016121 135.0273993468339 L 951 131 L 940.9141030571882 126.60970583457326" stroke-miterlimit="10"/></g><g transform="translate(-158,-22) scale(1,1)"><path fill="none" stroke="#000000" d="M 1095 132 L 1143 132" stroke-miterlimit="10"/></g><g transform="translate(-158,-22) scale(1,1)"><path fill="none" stroke="#000000" d="M 1132.837325142376 136.209517756016 L 1143 132 L 1132.837325142376 127.79048224398402" stroke-miterlimit="10"/></g><g transform="translate(-158,-22) scale(1,1)"><path fill="none" stroke="#000000" d="M 827 139 L 825 191" stroke-miterlimit="10"/></g><g transform="translate(-158,-22) scale(1,1)"><path fill="none" stroke="#000000" d="M 821.18417566617 180.6830486744702 L 825 191 L 829.5969909811859 181.0066184942785" stroke-miterlimit="10"/></g><g transform="translate(-158,-22) scale(1,1)"><path fill="none" stroke="#000000" d="M 727 212 L 523 212" stroke-miterlimit="10"/></g><g transform="translate(-158,-22) scale(1,1)"><path fill="none" stroke="#000000" d="M 533.1626748576241 207.790482243984 L 523 212 L 533.1626748576241 216.209517756016" stroke-miterlimit="10"/></g><g transform="translate(-158,-22) scale(1,1)"><path fill="none" stroke="#000000" d="M 408 233 L 408 280 L 815 281" stroke-miterlimit="10"/></g><g transform="translate(-158,-22) scale(1,1)"><path fill="none" stroke="#000000" d="M 804.8270130533147 285.1845354082107 L 815 281 L 804.8476985818155 276.76552530833754" stroke-miterlimit="10"/></g><g transform="translate(-158,-22) scale(1,1)"><path fill="none" stroke="#000000" d="M 839 281 L 951 283" stroke-miterlimit="10"/></g><g transform="translate(-158,-22) scale(1,1)"><path fill="none" stroke="#000000" d="M 940.7637871016121 287.0273993468339 L 951 283 L 940.9141030571882 278.6097058345733" stroke-miterlimit="10"/></g><g transform="translate(-158,-22) scale(1,1)"><path fill="none" stroke="#000000" d="M 1095 284 L 1143 284" stroke-miterlimit="10"/></g><g transform="translate(-158,-22) scale(1,1)"><path fill="none" stroke="#000000" d="M 1132.837325142376 288.209517756016 L 1143 284 L 1132.837325142376 279.790482243984" stroke-miterlimit="10"/></g><g transform="translate(-158,-22) scale(1,1)"><path fill="none" stroke="#000000" d="M 827 291 L 829 335" stroke-miterlimit="10"/></g><g transform="translate(-158,-22) scale(1,1)"><path fill="none" stroke="#000000" d="M 824.3333608983219 325.0389518877435 L 829 335 L 832.7437125137551 324.6566631779511" stroke-miterlimit="10"/></g><g transform="translate(-158,-22) scale(1,1)"><path fill="none" stroke="#000000" d="M 727 356 L 422 354" stroke-miterlimit="10"/></g><g transform="translate(-158,-22) scale(1,1)"><path fill="none" stroke="#000000" d="M 432.1900591729362 349.85721180217246 L 422 354 L 432.1348535695788 358.2760663141719" stroke-miterlimit="10"/></g><g transform="translate(-158,-22) scale(1,1)"><path fill="none" stroke="#000000" d="M 381 358 L 308 415" stroke-miterlimit="10"/></g><g transform="translate(-158,-22) scale(1,1)"><path fill="none" stroke="#000000" d="M 313.41941631690105 405.4276477925169 L 308 415 L 318.60078118557107 412.0634308699364" stroke-miterlimit="10"/></g><g transform="translate(-158,-22) scale(1,1)"><path fill="none" stroke="#000000" d="M 392 358 L 483 415" stroke-miterlimit="10"/></g><g transform="translate(-158,-22) scale(1,1)"><path fill="none" stroke="#000000" d="M 472.1528275242227 413.1727481616539 L 483 415 L 476.6219529515079 406.0378286198477" stroke-miterlimit="10"/></g><g transform="translate(-158,-22) scale(1,1)"><path fill="none" stroke="#000000" d="M 644 436 L 767 436" stroke-miterlimit="10"/></g><g transform="translate(-158,-22) scale(1,1)"><path fill="none" stroke="#000000" d="M 756.8373251423759 440.209517756016 L 767 436 L 756.8373251423758 431.790482243984" stroke-miterlimit="10"/></g><g transform="translate(-158,-22) scale(1,1)"><path fill="none" stroke="#000000" d="M 899 436 L 951 436" stroke-miterlimit="10"/></g><g transform="translate(-158,-22) scale(1,1)"><path fill="none" stroke="#000000" d="M 940.8373251423759 440.209517756016 L 951 436 L 940.8373251423758 431.790482243984" stroke-miterlimit="10"/></g><g transform="translate(-158,-22) scale(1,1)"><path fill="none" stroke="#000000" d="M 281 457 L 280 512 L 815 513" stroke-miterlimit="10"/></g><g transform="translate(-158,-22) scale(1,1)"><path fill="none" stroke="#000000" d="M 804.8294746515339 517.1905147817671 L 815 513 L 804.84521113902 508.7714939767199" stroke-miterlimit="10"/></g><g transform="translate(-158,-22) scale(1,1)"><path fill="none" stroke="#000000" d="M 828 503 L 831 457" stroke-miterlimit="10"/></g><g transform="translate(-158,-22) scale(1,1)"><path fill="none" stroke="#000000" d="M 834.5392159115803 467.41508284802467 L 831 457 L 826.1380278627038 466.8671792796197" stroke-miterlimit="10"/></g><g transform="translate(-158,-22) scale(1,1)"><path fill="none" stroke="#000000" d="M 839 513 L 951 515" stroke-miterlimit="10"/></g><g transform="translate(-158,-22) scale(1,1)"><path fill="none" stroke="#000000" d="M 940.7637871016121 519.0273993468339 L 951 515 L 940.9141030571882 510.6097058345733" stroke-miterlimit="10"/></g><g transform="translate(-158,-22) scale(1,1)"><path fill="none" stroke="#000000" d="M 828 523 L 832 559" stroke-miterlimit="10"/></g><g transform="translate(-158,-22) scale(1,1)"><path fill="none" stroke="#000000" d="M 826.6939490779461 549.3643462280668 L 832 559 L 835.0614915349942 548.4346192883949" stroke-miterlimit="10"/></g><g transform="translate(-158,-22) scale(1,1)"><path fill="none" stroke="#000000" d="M 1095 516 L 1143 516" stroke-miterlimit="10"/></g><g transform="translate(-158,-22) scale(1,1)"><path fill="none" stroke="#000000" d="M 1132.837325142376 520.209517756016 L 1143 516 L 1132.837325142376 511.790482243984" stroke-miterlimit="10"/></g><g transform="translate(-158,-22) scale(1,1)"><path fill="none" stroke="#000000" d="M 751 579 L 384 576 L 383 639" stroke-miterlimit="10"/></g><g transform="translate(-158,-22) scale(1,1)"><path fill="none" stroke="#000000" d="M 378.9523044249756 628.7717958305514 L 383 639 L 387.37027953829914 628.9054144831438" stroke-miterlimit="10"/></g><g transform="translate(-158,-22) scale(1,1)"><path fill="none" stroke="#000000" d="M 479 661 L 815 665" stroke-miterlimit="10"/></g><g transform="translate(-158,-22) scale(1,1)"><path fill="none" stroke="#000000" d="M 804.7879354541487 669.0882438419653 L 815 665 L 804.888154965916 660.6698048535117" stroke-miterlimit="10"/></g><g transform="translate(-158,-22) scale(1,1)"><path fill="none" stroke="#000000" d="M 839 665 L 967 667" stroke-miterlimit="10"/></g><g transform="translate(-158,-22) scale(1,1)"><path fill="none" stroke="#000000" d="M 956.7727997887746 671.050231578504 L 967 667 L 956.9043311635539 662.6322235926261" stroke-miterlimit="10"/></g><g transform="translate(-158,-22) scale(1,1)"><path fill="none" stroke="#000000" d="M 1095 668 L 1143 668" stroke-miterlimit="10"/></g><g transform="translate(-158,-22) scale(1,1)"><path fill="none" stroke="#000000" d="M 1132.837325142376 672.209517756016 L 1143 668 L 1132.837325142376 663.790482243984" stroke-miterlimit="10"/></g><g transform="translate(-158,-22) scale(1,1)"><path fill="none" stroke="#000000" d="M 827 675 L 830 735" stroke-miterlimit="10"/></g><g transform="translate(-158,-22) scale(1,1)"><path fill="none" stroke="#000000" d="M 825.2882345314658 725.0602180019113 L 830 735 L 833.6967659402035 724.6397914314744" stroke-miterlimit="10"/></g><g transform="translate(-158,-22) scale(1,1)"><path fill="none" stroke="#000000" d="M 830 777 L 828 823" stroke-miterlimit="10"/></g><g transform="translate(-158,-22) scale(1,1)"><path fill="none" stroke="#000000" d="M 824.235893749185 812.6640673312673 L 828 823 L 832.6469830248906 813.0297668649936" stroke-miterlimit="10"/></g></g></svg>