<svg version="1.1" xmlns="http://www.w3.org/2000/svg" xmlns:xlink="http://www.w3.org/1999/xlink" width="1148" height="821"><defs/><g><g transform="translate(-86,-38) scale(1,1)"><rect fill="#ffffff" stroke="none" x="96" y="48" width="608" height="21"/></g><g transform="translate(-86,-38) scale(1,1)"><path fill="none" stroke="#000000" d="M 96 48 L 704 48 L 704 69 L 96 69 L 96 48 Z Z" stroke-miterlimit="10" stroke-width="2"/></g><g transform="translate(-86,-38) scale(1,1)"><path fill="none" stroke="#000000" d="M 96 840 L 96 48 L 704 48 L 704 840" stroke-miterlimit="10" stroke-width="2"/></g><g transform="translate(-86,-38) scale(1,1)"><g><path fill="none" stroke="none"/><text fill="#000000" stroke="none" font-family="Arial" font-size="13px" font-style="normal" font-weight="normal" text-decoration="none" x="371.102294921875" y="65">Utilisateur</text></g></g><g transform="translate(-86,-38) scale(1,1)"><rect fill="#ffffff" stroke="none" x="792" y="48" width="432" height="21"/></g><g transform="translate(-86,-38) scale(1,1)"><path fill="none" stroke="#000000" d="M 792 48 L 1224 48 L 1224 69 L 792 69 L 792 48 Z Z" stroke-miterlimit="10" stroke-width="2"/></g><g transform="translate(-86,-38) scale(1,1)"><path fill="none" stroke="#000000" d="M 792 840 L 792 48 L 1224 48 L 1224 840" stroke-miterlimit="10" stroke-width="2"/></g><g transform="translate(-86,-38) scale(1,1)"><g><path fill="none" stroke="none"/><text fill="#000000" stroke="none" font-family="Arial" font-size="13px" font-style="normal" font-weight="normal" text-decoration="none" x="986.3291015625" y="65">System</text></g></g><g transform="translate(-86,-38) scale(1,1)"><path fill="#C0C0C0" stroke="none" d="M 321 135 L 496.36083984375 135 Q 506.36083984375 135 506.36083984375 145 L 506.36083984375 165 Q 506.36083984375 175 496.36083984375 175 L 321 175 Q 311 175 311 165 L 311 145 Q 311 135 321 135 Z" opacity="0.2"/></g><g transform="translate(-86,-38) scale(1,1)"><path fill="#ffffff" stroke="none" d="M 314 128 L 489.36083984375 128 Q 499.36083984375 128 499.36083984375 138 L 499.36083984375 158 Q 499.36083984375 168 489.36083984375 168 L 314 168 Q 304 168 304 158 L 304 138 Q 304 128 314 128 Z"/></g><g transform="translate(-86,-38) scale(1,1)"><path fill="none" stroke="#000000" d="M 314 128 L 489.36083984375 128 Q 499.36083984375 128 499.36083984375 138 L 499.36083984375 158 Q 499.36083984375 168 489.36083984375 168 L 314 168 Q 304 168 304 158 L 304 138 Q 304 128 314 128 Z" stroke-miterlimit="10"/></g><g transform="translate(-86,-38) scale(1,1)"><g><path fill="none" stroke="none"/><text fill="#000000" stroke="none" font-family="Arial" font-size="13px" font-style="normal" font-weight="bold" text-decoration="none" x="314.971435546875" y="147.5">Clique sur Créer un document</text></g></g><g transform="translate(-86,-38) scale(1,1)"><path fill="#C0C0C0" stroke="none" d="M 825 135 L 1012.66259765625 135 Q 1022.66259765625 135 1022.66259765625 145 L 1022.66259765625 165 Q 1022.66259765625 175 1012.66259765625 175 L 825 175 Q 815 175 815 165 L 815 145 Q 815 135 825 135 Z" opacity="0.2"/></g><g transform="translate(-86,-38) scale(1,1)"><path fill="#ffffff" stroke="none" d="M 818 128 L 1005.66259765625 128 Q 1015.66259765625 128 1015.66259765625 138 L 1015.66259765625 158 Q 1015.66259765625 168 1005.66259765625 168 L 818 168 Q 808 168 808 158 L 808 138 Q 808 128 818 128 Z"/></g><g transform="translate(-86,-38) scale(1,1)"><path fill="none" stroke="#000000" d="M 818 128 L 1005.66259765625 128 Q 1015.66259765625 128 1015.66259765625 138 L 1015.66259765625 158 Q 1015.66259765625 168 1005.66259765625 168 L 818 168 Q 808 168 808 158 L 808 138 Q 808 128 818 128 Z" stroke-miterlimit="10"/></g><g transform="translate(-86,-38) scale(1,1)"><g><path fill="none" stroke="none"/><text fill="#000000" stroke="none" font-family="Arial" font-size="13px" font-style="normal" font-weight="bold" text-decoration="none" x="820.425048828125" y="147.5">Affiche le formulaire de création</text></g></g><g transform="translate(-86,-38) scale(1,1)"><path fill="#C0C0C0" stroke="none" d="M 225 319 L 343.30810546875 319 Q 353.30810546875 319 353.30810546875 329 L 353.30810546875 349 Q 353.30810546875 359 343.30810546875 359 L 225 359 Q 215 359 215 349 L 215 329 Q 215 319 225 319 Z" opacity="0.2"/></g><g transform="translate(-86,-38) scale(1,1)"><path fill="#ffffff" stroke="none" d="M 218 312 L 336.30810546875 312 Q 346.30810546875 312 346.30810546875 322 L 346.30810546875 342 Q 346.30810546875 352 336.30810546875 352 L 218 352 Q 208 352 208 342 L 208 322 Q 208 312 218 312 Z"/></g><g transform="translate(-86,-38) scale(1,1)"><path fill="none" stroke="#000000" d="M 218 312 L 336.30810546875 312 Q 346.30810546875 312 346.30810546875 322 L 346.30810546875 342 Q 346.30810546875 352 336.30810546875 352 L 218 352 Q 208 352 208 342 L 208 322 Q 208 312 218 312 Z" stroke-miterlimit="10"/></g><g transform="translate(-86,-38) scale(1,1)"><g><path fill="none" stroke="none"/><text fill="#000000" stroke="none" font-family="Arial" font-size="13px" font-style="normal" font-weight="bold" text-decoration="none" x="217.552734375" y="331.5">Remplit le formulaire</text></g></g><g transform="translate(-86,-38) scale(1,1)"><path fill="#C0C0C0" stroke="none" d="M 385 311 L 527.86083984375 311 Q 537.86083984375 311 537.86083984375 321 L 537.86083984375 341 Q 537.86083984375 351 527.86083984375 351 L 385 351 Q 375 351 375 341 L 375 321 Q 375 311 385 311 Z" opacity="0.2"/></g><g transform="translate(-86,-38) scale(1,1)"><path fill="#ffffff" stroke="none" d="M 378 304 L 520.86083984375 304 Q 530.86083984375 304 530.86083984375 314 L 530.86083984375 334 Q 530.86083984375 344 520.86083984375 344 L 378 344 Q 368 344 368 334 L 368 314 Q 368 304 378 304 Z"/></g><g transform="translate(-86,-38) scale(1,1)"><path fill="none" stroke="#000000" d="M 378 304 L 520.86083984375 304 Q 530.86083984375 304 530.86083984375 314 L 530.86083984375 334 Q 530.86083984375 344 520.86083984375 344 L 378 344 Q 368 344 368 334 L 368 314 Q 368 304 378 304 Z" stroke-miterlimit="10"/></g><g transform="translate(-86,-38) scale(1,1)"><g><path fill="none" stroke="none"/><text fill="#000000" stroke="none" font-family="Arial" font-size="13px" font-style="normal" font-weight="bold" text-decoration="none" x="377.52099609375" y="323.5">Consulte la médiathèque</text></g></g><g transform="translate(-86,-38) scale(1,1)"><path fill="#C0C0C0" stroke="none" d="M 585 303 L 675.1181640625 303 Q 685.1181640625 303 685.1181640625 313 L 685.1181640625 333 Q 685.1181640625 343 675.1181640625 343 L 585 343 Q 575 343 575 333 L 575 313 Q 575 303 585 303 Z" opacity="0.2"/></g><g transform="translate(-86,-38) scale(1,1)"><path fill="#ffffff" stroke="none" d="M 578 296 L 668.1181640625 296 Q 678.1181640625 296 678.1181640625 306 L 678.1181640625 326 Q 678.1181640625 336 668.1181640625 336 L 578 336 Q 568 336 568 326 L 568 306 Q 568 296 578 296 Z"/></g><g transform="translate(-86,-38) scale(1,1)"><path fill="none" stroke="#000000" d="M 578 296 L 668.1181640625 296 Q 678.1181640625 296 678.1181640625 306 L 678.1181640625 326 Q 678.1181640625 336 668.1181640625 336 L 578 336 Q 568 336 568 326 L 568 306 Q 568 296 578 296 Z" stroke-miterlimit="10"/></g><g transform="translate(-86,-38) scale(1,1)"><g><path fill="none" stroke="none"/><text fill="#000000" stroke="none" font-family="Arial" font-size="13px" font-style="normal" font-weight="bold" text-decoration="none" x="576.083251953125" y="315.5">Ajoute un média</text></g></g><g transform="translate(-86,-38) scale(1,1)"><path fill="#C0C0C0" stroke="none" d="M 969 359 L 1100.30810546875 359 Q 1110.30810546875 359 1110.30810546875 369 L 1110.30810546875 389 Q 1110.30810546875 399 1100.30810546875 399 L 969 399 Q 959 399 959 389 L 959 369 Q 959 359 969 359 Z" opacity="0.2"/></g><g transform="translate(-86,-38) scale(1,1)"><path fill="#ffffff" stroke="none" d="M 962 352 L 1093.30810546875 352 Q 1103.30810546875 352 1103.30810546875 362 L 1103.30810546875 382 Q 1103.30810546875 392 1093.30810546875 392 L 962 392 Q 952 392 952 382 L 952 362 Q 952 352 962 352 Z"/></g><g transform="translate(-86,-38) scale(1,1)"><path fill="none" stroke="#000000" d="M 962 352 L 1093.30810546875 352 Q 1103.30810546875 352 1103.30810546875 362 L 1103.30810546875 382 Q 1103.30810546875 392 1093.30810546875 392 L 962 392 Q 952 392 952 382 L 952 362 Q 952 352 962 352 Z" stroke-miterlimit="10"/></g><g transform="translate(-86,-38) scale(1,1)"><g><path fill="none" stroke="none"/><text fill="#000000" stroke="none" font-family="Arial" font-size="13px" font-style="normal" font-weight="bold" text-decoration="none" x="961.52734375" y="371.5">Affiche la médiathèque</text></g></g><g transform="translate(-86,-38) scale(1,1)"><path fill="#C0C0C0" stroke="none" d="M 937 279 L 1141.287109375 279 Q 1151.287109375 279 1151.287109375 289 L 1151.287109375 309 Q 1151.287109375 319 1141.287109375 319 L 937 319 Q 927 319 927 309 L 927 289 Q 927 279 937 279 Z" opacity="0.2"/></g><g transform="translate(-86,-38) scale(1,1)"><path fill="#ffffff" stroke="none" d="M 930 272 L 1134.287109375 272 Q 1144.287109375 272 1144.287109375 282 L 1144.287109375 302 Q 1144.287109375 312 1134.287109375 312 L 930 312 Q 920 312 920 302 L 920 282 Q 920 272 930 272 Z"/></g><g transform="translate(-86,-38) scale(1,1)"><path fill="none" stroke="#000000" d="M 930 272 L 1134.287109375 272 Q 1144.287109375 272 1144.287109375 282 L 1144.287109375 302 Q 1144.287109375 312 1134.287109375 312 L 930 312 Q 920 312 920 302 L 920 282 Q 920 272 930 272 Z" stroke-miterlimit="10"/></g><g transform="translate(-86,-38) scale(1,1)"><g><path fill="none" stroke="none"/><text fill="#000000" stroke="none" font-family="Arial" font-size="13px" font-style="normal" font-weight="bold" text-decoration="none" x="932.42822265625" y="291.5">Affiche le média dans le formulaire</text></g></g><g transform="translate(-86,-38) scale(1,1)"><path fill="#C0C0C0" stroke="none" d="M 599 456.5 L 610.5 447 L 621 456.5 L 610.5 465 L 599 456.5" opacity="0.2"/></g><g transform="translate(-86,-38) scale(1,1)"><path fill="#ffffff" stroke="none" d="M 592 449 L 603 440 L 614 449 L 603 458 L 592 449"/></g><g transform="translate(-86,-38) scale(1,1)"><path fill="none" stroke="#000000" d="M 592 449 L 603 440 L 614 449 L 603 458 L 592 449 L 592 449" stroke-miterlimit="10"/></g><g transform="translate(-86,-38) scale(1,1)"><path fill="#C0C0C0" stroke="none" d="M 441 511 L 679.92626953125 511 Q 689.92626953125 511 689.92626953125 521 L 689.92626953125 541 Q 689.92626953125 551 679.92626953125 551 L 441 551 Q 431 551 431 541 L 431 521 Q 431 511 441 511 Z" opacity="0.2"/></g><g transform="translate(-86,-38) scale(1,1)"><path fill="#ffffff" stroke="none" d="M 434 504 L 672.92626953125 504 Q 682.92626953125 504 682.92626953125 514 L 682.92626953125 534 Q 682.92626953125 544 672.92626953125 544 L 434 544 Q 424 544 424 534 L 424 514 Q 424 504 434 504 Z"/></g><g transform="translate(-86,-38) scale(1,1)"><path fill="none" stroke="#000000" d="M 434 504 L 672.92626953125 504 Q 682.92626953125 504 682.92626953125 514 L 682.92626953125 534 Q 682.92626953125 544 672.92626953125 544 L 434 544 Q 424 544 424 534 L 424 514 Q 424 504 434 504 Z" stroke-miterlimit="10"/></g><g transform="translate(-86,-38) scale(1,1)"><g><path fill="none" stroke="none"/><text fill="#000000" stroke="none" font-family="Arial" font-size="13px" font-style="normal" font-weight="bold" text-decoration="none" x="437.46923828125" y="523.5">Quitte la consultation de la médiathèque</text></g></g><g transform="translate(-86,-38) scale(1,1)"><path fill="#C0C0C0" stroke="none" d="M 209 591 L 343.93896484375 591 Q 353.93896484375 591 353.93896484375 601 L 353.93896484375 621 Q 353.93896484375 631 343.93896484375 631 L 209 631 Q 199 631 199 621 L 199 601 Q 199 591 209 591 Z" opacity="0.2"/></g><g transform="translate(-86,-38) scale(1,1)"><path fill="#ffffff" stroke="none" d="M 202 584 L 336.93896484375 584 Q 346.93896484375 584 346.93896484375 594 L 346.93896484375 614 Q 346.93896484375 624 336.93896484375 624 L 202 624 Q 192 624 192 614 L 192 594 Q 192 584 202 584 Z"/></g><g transform="translate(-86,-38) scale(1,1)"><path fill="none" stroke="#000000" d="M 202 584 L 336.93896484375 584 Q 346.93896484375 584 346.93896484375 594 L 346.93896484375 614 Q 346.93896484375 624 336.93896484375 624 L 202 624 Q 192 624 192 614 L 192 594 Q 192 584 202 584 Z" stroke-miterlimit="10"/></g><g transform="translate(-86,-38) scale(1,1)"><g><path fill="none" stroke="none"/><text fill="#000000" stroke="none" font-family="Arial" font-size="13px" font-style="normal" font-weight="bold" text-decoration="none" x="202.2763671875" y="603.5">Enregistre le formulaire</text></g></g><g transform="translate(-86,-38) scale(1,1)"><path fill="#C0C0C0" stroke="none" d="M 503 208.5 L 514.5 199 L 525 208.5 L 514.5 217 L 503 208.5" opacity="0.2"/></g><g transform="translate(-86,-38) scale(1,1)"><path fill="#ffffff" stroke="none" d="M 496 201 L 507 192 L 518 201 L 507 210 L 496 201"/></g><g transform="translate(-86,-38) scale(1,1)"><path fill="none" stroke="#000000" d="M 496 201 L 507 192 L 518 201 L 507 210 L 496 201 L 496 201" stroke-miterlimit="10"/></g><g transform="translate(-86,-38) scale(1,1)"><path fill="#C0C0C0" stroke="none" d="M 209 215 L 304.18994140625 215 Q 314.18994140625 215 314.18994140625 225 L 314.18994140625 245 Q 314.18994140625 255 304.18994140625 255 L 209 255 Q 199 255 199 245 L 199 225 Q 199 215 209 215 Z" opacity="0.2"/></g><g transform="translate(-86,-38) scale(1,1)"><path fill="#ffffff" stroke="none" d="M 202 208 L 297.18994140625 208 Q 307.18994140625 208 307.18994140625 218 L 307.18994140625 238 Q 307.18994140625 248 297.18994140625 248 L 202 248 Q 192 248 192 238 L 192 218 Q 192 208 202 208 Z"/></g><g transform="translate(-86,-38) scale(1,1)"><path fill="none" stroke="#000000" d="M 202 208 L 297.18994140625 208 Q 307.18994140625 208 307.18994140625 218 L 307.18994140625 238 Q 307.18994140625 248 297.18994140625 248 L 202 248 Q 192 248 192 238 L 192 218 Q 192 208 202 208 Z" stroke-miterlimit="10"/></g><g transform="translate(-86,-38) scale(1,1)"><g><path fill="none" stroke="none"/><text fill="#000000" stroke="none" font-family="Arial" font-size="13px" font-style="normal" font-weight="bold" text-decoration="none" x="200.457763671875" y="227.5">Quitte la création</text></g></g><g transform="translate(-86,-38) scale(1,1)"><path fill="none" stroke="#000000" d="M 401 100 L 401 127" stroke-miterlimit="10"/></g><g transform="translate(-86,-38) scale(1,1)"><path fill="none" stroke="#000000" d="M 396.790482243984 116.83732514237585 L 401 127 L 405.209517756016 116.83732514237585" stroke-miterlimit="10"/></g><g transform="translate(-86,-38) scale(1,1)"><path fill="none" stroke="#000000" d="M 500 148 L 807 148" stroke-miterlimit="10"/></g><g transform="translate(-86,-38) scale(1,1)"><path fill="none" stroke="#000000" d="M 796.8373251423759 152.209517756016 L 807 148 L 796.8373251423758 143.790482243984" stroke-miterlimit="10"/></g><g transform="translate(-86,-38) scale(1,1)"><path fill="none" stroke="#000000" d="M 911 169 L 912 224 L 519 202" stroke-miterlimit="10"/></g><g transform="translate(-86,-38) scale(1,1)"><path fill="none" stroke="#000000" d="M 529.3820676371785 198.36507612499912 L 519 202 L 528.9115097500963 206.7709511078763" stroke-miterlimit="10"/></g><g transform="translate(-86,-38) scale(1,1)"><path fill="none" stroke="#000000" d="M 495 202 L 308 222" stroke-miterlimit="10"/></g><g transform="translate(-86,-38) scale(1,1)"><path fill="none" stroke="#000000" d="M 317.6573821467429 216.73359989444677 L 308 222 L 318.55270763155005 225.10489317739356" stroke-miterlimit="10"/></g><g transform="translate(-86,-38) scale(1,1)"><path fill="none" stroke="#000000" d="M 517 211 L 602 295" stroke-miterlimit="10"/></g><g transform="translate(-86,-38) scale(1,1)"><path fill="none" stroke="#000000" d="M 591.8125950964076 290.8506890535583 L 602 295 L 597.7304228174572 284.86241100249623" stroke-miterlimit="10"/></g><g transform="translate(-86,-38) scale(1,1)"><path fill="none" stroke="#000000" d="M 495 208 L 314 311" stroke-miterlimit="10"/></g><g transform="translate(-86,-38) scale(1,1)"><path fill="none" stroke="#000000" d="M 320.75069588193946 302.3150644729183 L 314 311 L 324.91463964121493 309.63228603048003" stroke-miterlimit="10"/></g><g transform="translate(-86,-38) scale(1,1)"><path fill="#C0C0C0" stroke="none" d="M 263 520.5 L 274.5 511 L 285 520.5 L 274.5 529 L 263 520.5" opacity="0.2"/></g><g transform="translate(-86,-38) scale(1,1)"><path fill="#ffffff" stroke="none" d="M 256 513 L 267 504 L 278 513 L 267 522 L 256 513"/></g><g transform="translate(-86,-38) scale(1,1)"><path fill="none" stroke="#000000" d="M 256 513 L 267 504 L 278 513 L 267 522 L 256 513 L 256 513" stroke-miterlimit="10"/></g><g transform="translate(-86,-38) scale(1,1)"><path fill="none" stroke="#000000" d="M 276 353 L 268 503" stroke-miterlimit="10"/></g><g transform="translate(-86,-38) scale(1,1)"><path fill="none" stroke="#000000" d="M 264.33769648053226 492.62755896949545 L 268 503 L 272.74478373674833 493.07593695649365" stroke-miterlimit="10"/></g><g transform="translate(-86,-38) scale(1,1)"><path fill="none" stroke="#000000" d="M 267 523 L 269 583" stroke-miterlimit="10"/></g><g transform="translate(-86,-38) scale(1,1)"><path fill="none" stroke="#000000" d="M 264.45425113032024 572.9832057416654 L 269 583 L 272.86861329449727 572.7027270028594" stroke-miterlimit="10"/></g><g transform="translate(-86,-38) scale(1,1)"><path fill="none" stroke="#000000" d="M 279 506 L 585 337" stroke-miterlimit="10"/></g><g transform="translate(-86,-38) scale(1,1)"><path fill="none" stroke="#000000" d="M 578.1390238087611 345.5980815129453 L 585 337 L 574.0687954666172 338.2283189526138" stroke-miterlimit="10"/></g><g transform="translate(-86,-38) scale(1,1)"><path fill="none" stroke="#000000" d="M 277 503 L 429 345" stroke-miterlimit="10"/></g><g transform="translate(-86,-38) scale(1,1)"><path fill="none" stroke="#000000" d="M 424.98793058657054 355.24223115448115 L 429 345 L 418.9206874073592 349.40538961498663" stroke-miterlimit="10"/></g><g transform="translate(-86,-38) scale(1,1)"><path fill="none" stroke="#000000" d="M 679 313 L 919 299" stroke-miterlimit="10"/></g><g transform="translate(-86,-38) scale(1,1)"><path fill="none" stroke="#000000" d="M 909.099710282756 303.7941906005739 L 919 299 L 908.6094333212586 295.3894426891919" stroke-miterlimit="10"/></g><g transform="translate(-86,-38) scale(1,1)"><path fill="none" stroke="#000000" d="M 919 272 L 519 203" stroke-miterlimit="10"/></g><g transform="translate(-86,-38) scale(1,1)"><path fill="none" stroke="#000000" d="M 529.7303396152088 200.5792951972037 L 519 203 L 528.2991926876568 208.87579912504066" stroke-miterlimit="10"/></g><g transform="translate(-86,-38) scale(1,1)"><path fill="#C0C0C0" stroke="none" d="M 865 663 L 998.47900390625 663 Q 1008.47900390625 663 1008.47900390625 673 L 1008.47900390625 693 Q 1008.47900390625 703 998.47900390625 703 L 865 703 Q 855 703 855 693 L 855 673 Q 855 663 865 663 Z" opacity="0.2"/></g><g transform="translate(-86,-38) scale(1,1)"><path fill="#ffffff" stroke="none" d="M 858 656 L 991.47900390625 656 Q 1001.47900390625 656 1001.47900390625 666 L 1001.47900390625 686 Q 1001.47900390625 696 991.47900390625 696 L 858 696 Q 848 696 848 686 L 848 666 Q 848 656 858 656 Z"/></g><g transform="translate(-86,-38) scale(1,1)"><path fill="none" stroke="#000000" d="M 858 656 L 991.47900390625 656 Q 1001.47900390625 656 1001.47900390625 666 L 1001.47900390625 686 Q 1001.47900390625 696 991.47900390625 696 L 858 696 Q 848 696 848 686 L 848 666 Q 848 656 858 656 Z" stroke-miterlimit="10"/></g><g transform="translate(-86,-38) scale(1,1)"><g><path fill="none" stroke="none"/><text fill="#000000" stroke="none" font-family="Arial" font-size="13px" font-style="normal" font-weight="bold" text-decoration="none" x="857.898681640625" y="675.5">Enregistre le document</text></g></g><g transform="translate(-86,-38) scale(1,1)"><path fill="#C0C0C0" stroke="none" d="M 857 751 L 1105.3525390625 751 Q 1115.3525390625 751 1115.3525390625 761 L 1115.3525390625 781 Q 1115.3525390625 791 1105.3525390625 791 L 857 791 Q 847 791 847 781 L 847 761 Q 847 751 857 751 Z" opacity="0.2"/></g><g transform="translate(-86,-38) scale(1,1)"><path fill="#ffffff" stroke="none" d="M 850 744 L 1098.3525390625 744 Q 1108.3525390625 744 1108.3525390625 754 L 1108.3525390625 774 Q 1108.3525390625 784 1098.3525390625 784 L 850 784 Q 840 784 840 774 L 840 754 Q 840 744 850 744 Z"/></g><g transform="translate(-86,-38) scale(1,1)"><path fill="none" stroke="#000000" d="M 850 744 L 1098.3525390625 744 Q 1108.3525390625 744 1108.3525390625 754 L 1108.3525390625 774 Q 1108.3525390625 784 1098.3525390625 784 L 850 784 Q 840 784 840 774 L 840 754 Q 840 744 850 744 Z" stroke-miterlimit="10"/></g><g transform="translate(-86,-38) scale(1,1)"><g><path fill="none" stroke="none"/><text fill="#000000" stroke="none" font-family="Arial" font-size="13px" font-style="normal" font-weight="bold" text-decoration="none" x="854.5927734375" y="763.5">Affiche la liste des documents mise à jour</text></g></g><g transform="translate(-86,-38) scale(1,1)"><path fill="none" stroke="#000000" d="M 502 211 L 459 303" stroke-miterlimit="10"/></g><g transform="translate(-86,-38) scale(1,1)"><path fill="none" stroke="#000000" d="M 459.48959079288835 292.0109008169223 L 459 303 L 467.1166595211436 295.57572641817205" stroke-miterlimit="10"/></g><g transform="translate(-86,-38) scale(1,1)"><path fill="none" stroke="#000000" d="M 449 345 L 448 376 L 951 373" stroke-miterlimit="10"/></g><g transform="translate(-86,-38) scale(1,1)"><path fill="none" stroke="#000000" d="M 940.8626119113625 377.27005418470907 L 951 373 L 940.812399868963 368.85116840904647" stroke-miterlimit="10"/></g><g transform="translate(-86,-38) scale(1,1)"><path fill="none" stroke="#000000" d="M 1011 393 L 968 448 L 615 449" stroke-miterlimit="10"/></g><g transform="translate(-86,-38) scale(1,1)"><path fill="none" stroke="#000000" d="M 625.1507091479863 444.7617098031178 L 615 449 L 625.1745590112453 453.18071153354157" stroke-miterlimit="10"/></g><g transform="translate(-86,-38) scale(1,1)"><path fill="none" stroke="#000000" d="M 605 439 L 620 337" stroke-miterlimit="10"/></g><g transform="translate(-86,-38) scale(1,1)"><path fill="none" stroke="#000000" d="M 622.6861167282577 347.6669947465148 L 620 337 L 614.3566670334678 346.44207567375156" stroke-miterlimit="10"/></g><g transform="translate(-86,-38) scale(1,1)"><path fill="none" stroke="#000000" d="M 596 459 L 567 503" stroke-miterlimit="10"/></g><g transform="translate(-86,-38) scale(1,1)"><path fill="none" stroke="#000000" d="M 569.0778843813063 492.1980373774983 L 567 503 L 576.1074271570378 496.8311451160487" stroke-miterlimit="10"/></g><g transform="translate(-86,-38) scale(1,1)"><path fill="#C0C0C0" stroke="none" d="M 863 608.5 L 874.5 599 L 885 608.5 L 874.5 617 L 863 608.5" opacity="0.2"/></g><g transform="translate(-86,-38) scale(1,1)"><path fill="#ffffff" stroke="none" d="M 856 601 L 867 592 L 878 601 L 867 610 L 856 601"/></g><g transform="translate(-86,-38) scale(1,1)"><path fill="none" stroke="#000000" d="M 856 601 L 867 592 L 878 601 L 867 610 L 856 601 L 856 601" stroke-miterlimit="10"/></g><g transform="translate(-86,-38) scale(1,1)"><path fill="#C0C0C0" stroke="none" d="M 913 535 L 1013.97265625 535 Q 1023.97265625 535 1023.97265625 545 L 1023.97265625 565 Q 1023.97265625 575 1013.97265625 575 L 913 575 Q 903 575 903 565 L 903 545 Q 903 535 913 535 Z" opacity="0.2"/></g><g transform="translate(-86,-38) scale(1,1)"><path fill="#ffffff" stroke="none" d="M 906 528 L 1006.97265625 528 Q 1016.97265625 528 1016.97265625 538 L 1016.97265625 558 Q 1016.97265625 568 1006.97265625 568 L 906 568 Q 896 568 896 558 L 896 538 Q 896 528 906 528 Z"/></g><g transform="translate(-86,-38) scale(1,1)"><path fill="none" stroke="#000000" d="M 906 528 L 1006.97265625 528 Q 1016.97265625 528 1016.97265625 538 L 1016.97265625 558 Q 1016.97265625 568 1006.97265625 568 L 906 568 Q 896 568 896 558 L 896 538 Q 896 528 906 528 Z" stroke-miterlimit="10"/></g><g transform="translate(-86,-38) scale(1,1)"><g><path fill="none" stroke="none"/><text fill="#000000" stroke="none" font-family="Arial" font-size="13px" font-style="normal" font-weight="bold" text-decoration="none" x="904.819580078125" y="547.5">Affiche une erreur</text></g></g><g transform="translate(-86,-38) scale(1,1)"><path fill="none" stroke="#000000" d="M 348 604 L 855 601" stroke-miterlimit="10"/></g><g transform="translate(-86,-38) scale(1,1)"><path fill="none" stroke="#000000" d="M 844.8624110024962 605.2695771825428 L 855 601 L 844.8125950964076 596.8506890535583" stroke-miterlimit="10"/></g><g transform="translate(-86,-38) scale(1,1)"><path fill="none" stroke="#000000" d="M 879 594 L 921 569" stroke-miterlimit="10"/></g><g transform="translate(-86,-38) scale(1,1)"><path fill="none" stroke="#000000" d="M 914.4203861978818 577.8152528162824 L 921 569 L 910.1141854186665 570.5808355072007" stroke-miterlimit="10"/></g><g transform="translate(-86,-38) scale(1,1)"><path fill="none" stroke="#000000" d="M 875 611 L 908 655" stroke-miterlimit="10"/></g><g transform="translate(-86,-38) scale(1,1)"><path fill="none" stroke="#000000" d="M 898.5347808806127 649.3955707675103 L 908 655 L 905.2700092902382 644.3441494602911" stroke-miterlimit="10"/></g><g transform="translate(-86,-38) scale(1,1)"><path fill="none" stroke="#000000" d="M 936 697 L 962 743" stroke-miterlimit="10"/></g><g transform="translate(-86,-38) scale(1,1)"><path fill="none" stroke="#000000" d="M 953.3347323618295 736.224076685877 L 962 743 L 960.6640318164697 732.081429168037" stroke-miterlimit="10"/></g><g transform="translate(-86,-38) scale(1,1)"><path fill="#C0C0C0" stroke="none" d="M 127 235.5 C 127 228.59644 132.59644 223 139.5 223 C 146.40356 223 152 228.59644 152 235.5 C 152 242.40356 146.40356 248 139.5 248 C 132.59644 248 127 242.40356 127 235.5 Z" opacity="0.2"/></g><g transform="translate(-86,-38) scale(1,1)"><path fill="none" stroke="#000000" d="M 120 228.5 C 120 221.59644 125.59644 216 132.5 216 C 139.40356 216 145 221.59644 145 228.5 C 145 235.40356 139.40356 241 132.5 241 C 125.59644 241 120 235.40356 120 228.5 Z" stroke-miterlimit="10"/></g><g transform="translate(-86,-38) scale(1,1)"><path fill="#000000" stroke="none" d="M 125 228.5 C 125 224.357864 128.357864 221 132.5 221 C 136.642136 221 140 224.357864 140 228.5 C 140 232.642136 136.642136 236 132.5 236 C 128.357864 236 125 232.642136 125 228.5 Z"/></g><g transform="translate(-86,-38) scale(1,1)"><path fill="#C0C0C0" stroke="none" d="M 967 843.5 C 967 836.59644 972.59644 831 979.5 831 C 986.40356 831 992 836.59644 992 843.5 C 992 850.40356 986.40356 856 979.5 856 C 972.59644 856 967 850.40356 967 843.5 Z" opacity="0.2"/></g><g transform="translate(-86,-38) scale(1,1)"><path fill="none" stroke="#000000" d="M 960 836.5 C 960 829.59644 965.59644 824 972.5 824 C 979.40356 824 985 829.59644 985 836.5 C 985 843.40356 979.40356 849 972.5 849 C 965.59644 849 960 843.40356 960 836.5 Z" stroke-miterlimit="10"/></g><g transform="translate(-86,-38) scale(1,1)"><path fill="#000000" stroke="none" d="M 965 836.5 C 965 832.357864 968.357864 829 972.5 829 C 976.642136 829 980 832.357864 980 836.5 C 980 840.642136 976.642136 844 972.5 844 C 968.357864 844 965 840.642136 965 836.5 Z"/></g><g transform="translate(-86,-38) scale(1,1)"><path fill="none" stroke="#000000" d="M 191 228 L 146 228" stroke-miterlimit="10"/></g><g transform="translate(-86,-38) scale(1,1)"><path fill="none" stroke="#000000" d="M 156.16267485762415 223.790482243984 L 146 228 L 156.16267485762415 232.209517756016" stroke-miterlimit="10"/></g><g transform="translate(-86,-38) scale(1,1)"><path fill="none" stroke="#000000" d="M 973 785 L 972 823" stroke-miterlimit="10"/></g><g transform="translate(-86,-38) scale(1,1)"><path fill="none" stroke="#000000" d="M 968.0592853332588 812.7301038021151 L 972 823 L 976.4754071800323 812.9515806928197" stroke-miterlimit="10"/></g><g transform="translate(-86,-38) scale(1,1)"><path fill="none" stroke="#000000" d="M 943 527 L 832 352 L 519 207" stroke-miterlimit="10"/></g><g transform="translate(-86,-38) scale(1,1)"><path fill="none" stroke="#000000" d="M 529.9906989050367 207.4522583098472 L 519 207 L 526.45180280799 215.0913926434719" stroke-miterlimit="10"/></g><g transform="translate(-86,-38) scale(1,1)"><path fill="#C0C0C0" stroke="none" d="M 399 96.5 C 399 91.2532944 403.2532944 87 408.5 87 C 413.7467056 87 418 91.2532944 418 96.5 C 418 101.7467056 413.7467056 106 408.5 106 C 403.2532944 106 399 101.7467056 399 96.5 Z" opacity="0.2"/></g><g transform="translate(-86,-38) scale(1,1)"><path fill="#000000" stroke="none" d="M 392 89.5 C 392 84.2532944 396.2532944 80 401.5 80 C 406.7467056 80 411 84.2532944 411 89.5 C 411 94.7467056 406.7467056 99 401.5 99 C 396.2532944 99 392 94.7467056 392 89.5 Z"/></g></g></svg>