<svg version="1.1" xmlns="http://www.w3.org/2000/svg" xmlns:xlink="http://www.w3.org/1999/xlink" width="788" height="1196"><defs/><g><g transform="translate(-22,-30) scale(1,1)"><rect fill="#C0C0C0" stroke="none" x="375" y="47" width="432" height="1176" opacity="0.2"/></g><g transform="translate(-22,-30) scale(1,1)"><rect fill="#ffffff" stroke="none" x="368" y="40" width="432" height="1176"/></g><g transform="translate(-22,-30) scale(1,1)"><path fill="none" stroke="#000000" d="M 368 40 L 800 40 L 800 1216 L 368 1216 L 368 40 Z Z" stroke-miterlimit="10"/></g><g transform="translate(-22,-30) scale(1,1)"><g><path fill="none" stroke="none"/><text fill="#000000" stroke="none" font-family="Arial" font-size="13px" font-style="normal" font-weight="bold" text-decoration="none" x="516.438720703125" y="59.5">Interface administration</text></g></g><g transform="translate(-22,-30) scale(1,1)"><path fill="#ffffff" stroke="none" d="M 59.60661594460227 529.6800000000001 C 59.60661594460227 524.8861679360001 63.492458269547726 521 68.285888671875 521 C 73.07931907420227 521 76.96516139914773 524.8861679360001 76.96516139914773 529.6800000000001 C 76.96516139914773 534.473832064 73.07931907420227 538.36 68.285888671875 538.36 C 63.492458269547726 538.36 59.60661594460227 534.473832064 59.60661594460227 529.6800000000001 Z"/></g><g transform="translate(-22,-30) scale(1,1)"><path fill="none" stroke="#000000" d="M 59.60661594460227 529.6800000000001 C 59.60661594460227 524.8861679360001 63.492458269547726 521 68.285888671875 521 C 73.07931907420227 521 76.96516139914773 524.8861679360001 76.96516139914773 529.6800000000001 C 76.96516139914773 534.473832064 73.07931907420227 538.36 68.285888671875 538.36 C 63.492458269547726 538.36 59.60661594460227 534.473832064 59.60661594460227 529.6800000000001 Z" stroke-miterlimit="10"/></g><g transform="translate(-22,-30) scale(1,1)"><path fill="none" stroke="#000000" d="M 68.285888671875 538.36 L 68.285888671875 555.64" stroke-miterlimit="10"/></g><g transform="translate(-22,-30) scale(1,1)"><path fill="none" stroke="#000000" d="M 59.09607049005682 544.84 L 77.47570685369318 544.84" stroke-miterlimit="10"/></g><g transform="translate(-22,-30) scale(1,1)"><path fill="none" stroke="#000000" d="M 68.285888671875 555.64 L 55.522252308238635 573" stroke-miterlimit="10"/></g><g transform="translate(-22,-30) scale(1,1)"><path fill="none" stroke="#000000" d="M 68.285888671875 555.64 L 81.04952503551137 573" stroke-miterlimit="10"/></g><g transform="translate(-22,-30) scale(1,1)"><g><path fill="none" stroke="none"/><text fill="#000000" stroke="none" font-family="Arial" font-size="13px" font-style="normal" font-weight="bold" text-decoration="none" x="39.38818359375" y="593.5">Utilisateur</text></g></g><g transform="translate(-22,-30) scale(1,1)"><rect fill="#C0C0C0" stroke="none" x="423" y="103" width="137.60000000000002" height="15" opacity="0.2"/></g><g transform="translate(-22,-30) scale(1,1)"><rect fill="#C0C0C0" stroke="none" x="423" y="117" width="344" height="242" opacity="0.2"/></g><g transform="translate(-22,-30) scale(1,1)"><rect fill="#ffffff" stroke="none" x="416" y="111" width="344" height="241"/></g><g transform="translate(-22,-30) scale(1,1)"><path fill="none" stroke="#000000" d="M 416 111 L 760 111 L 760 352 L 416 352 L 416 111 Z Z" stroke-miterlimit="10"/></g><g transform="translate(-22,-30) scale(1,1)"><rect fill="#ffffff" stroke="none" x="416" y="96" width="137.60000000000002" height="15"/></g><g transform="translate(-22,-30) scale(1,1)"><path fill="none" stroke="#000000" d="M 416 96 L 553.6 96 L 553.6 111 L 416 111 L 416 96 Z Z" stroke-miterlimit="10"/></g><g transform="translate(-22,-30) scale(1,1)"><rect fill="#ffffff" stroke="none" x="416" y="110" width="344" height="242"/></g><g transform="translate(-22,-30) scale(1,1)"><path fill="none" stroke="#000000" d="M 416 110 L 760 110 L 760 352 L 416 352 L 416 110 Z Z" stroke-miterlimit="10"/></g><g transform="translate(-22,-30) scale(1,1)"><g><path fill="none" stroke="none"/><text fill="#000000" stroke="none" font-family="Arial" font-size="13px" font-style="normal" font-weight="bold" text-decoration="none" x="521.517822265625" y="130.5">Gestion des catégories</text></g></g><g transform="translate(-22,-30) scale(1,1)"><rect fill="#C0C0C0" stroke="none" x="415" y="439" width="144" height="15" opacity="0.2"/></g><g transform="translate(-22,-30) scale(1,1)"><rect fill="#C0C0C0" stroke="none" x="415" y="453" width="360" height="322" opacity="0.2"/></g><g transform="translate(-22,-30) scale(1,1)"><rect fill="#ffffff" stroke="none" x="408" y="447" width="360" height="321"/></g><g transform="translate(-22,-30) scale(1,1)"><path fill="none" stroke="#000000" d="M 408 447 L 768 447 L 768 768 L 408 768 L 408 447 Z Z" stroke-miterlimit="10"/></g><g transform="translate(-22,-30) scale(1,1)"><rect fill="#ffffff" stroke="none" x="408" y="432" width="144" height="15"/></g><g transform="translate(-22,-30) scale(1,1)"><path fill="none" stroke="#000000" d="M 408 432 L 552 432 L 552 447 L 408 447 L 408 432 Z Z" stroke-miterlimit="10"/></g><g transform="translate(-22,-30) scale(1,1)"><rect fill="#ffffff" stroke="none" x="408" y="446" width="360" height="322"/></g><g transform="translate(-22,-30) scale(1,1)"><path fill="none" stroke="#000000" d="M 408 446 L 768 446 L 768 768 L 408 768 L 408 446 Z Z" stroke-miterlimit="10"/></g><g transform="translate(-22,-30) scale(1,1)"><g><path fill="none" stroke="none"/><text fill="#000000" stroke="none" font-family="Arial" font-size="13px" font-style="normal" font-weight="bold" text-decoration="none" x="519.7119140625" y="466.5">Gestion des documents</text></g></g><g transform="translate(-22,-30) scale(1,1)"><rect fill="#C0C0C0" stroke="none" x="415" y="831" width="137.60000000000002" height="15" opacity="0.2"/></g><g transform="translate(-22,-30) scale(1,1)"><rect fill="#C0C0C0" stroke="none" x="415" y="845" width="344" height="282" opacity="0.2"/></g><g transform="translate(-22,-30) scale(1,1)"><rect fill="#ffffff" stroke="none" x="408" y="839" width="344" height="281"/></g><g transform="translate(-22,-30) scale(1,1)"><path fill="none" stroke="#000000" d="M 408 839 L 752 839 L 752 1120 L 408 1120 L 408 839 Z Z" stroke-miterlimit="10"/></g><g transform="translate(-22,-30) scale(1,1)"><rect fill="#ffffff" stroke="none" x="408" y="824" width="137.60000000000002" height="15"/></g><g transform="translate(-22,-30) scale(1,1)"><path fill="none" stroke="#000000" d="M 408 824 L 545.6 824 L 545.6 839 L 408 839 L 408 824 Z Z" stroke-miterlimit="10"/></g><g transform="translate(-22,-30) scale(1,1)"><rect fill="#ffffff" stroke="none" x="408" y="838" width="344" height="282"/></g><g transform="translate(-22,-30) scale(1,1)"><path fill="none" stroke="#000000" d="M 408 838 L 752 838 L 752 1120 L 408 1120 L 408 838 Z Z" stroke-miterlimit="10"/></g><g transform="translate(-22,-30) scale(1,1)"><g><path fill="none" stroke="none"/><text fill="#000000" stroke="none" font-family="Arial" font-size="13px" font-style="normal" font-weight="bold" text-decoration="none" x="522.5537109375" y="858.5">Gestion des médias</text></g></g><g transform="translate(-22,-30) scale(1,1)"><path fill="#C0C0C0" stroke="none" d="M 471 320 C 471 310.6111584 522.2633904 303 585.5 303 C 648.7366096 303 700 310.6111584 700 320 C 700 329.3888416 648.7366096 337 585.5 337 C 522.2633904 337 471 329.3888416 471 320 Z" opacity="0.2"/></g><g transform="translate(-22,-30) scale(1,1)"><path fill="#ffffff" stroke="none" d="M 464 313 C 464 303.6111584 515.2633904 296 578.5 296 C 641.7366096 296 693 303.6111584 693 313 C 693 322.3888416 641.7366096 330 578.5 330 C 515.2633904 330 464 322.3888416 464 313 Z"/></g><g transform="translate(-22,-30) scale(1,1)"><path fill="none" stroke="#000000" d="M 464 313 C 464 303.6111584 515.2633904 296 578.5 296 C 641.7366096 296 693 303.6111584 693 313 C 693 322.3888416 641.7366096 330 578.5 330 C 515.2633904 330 464 322.3888416 464 313 Z" stroke-miterlimit="10"/></g><g transform="translate(-22,-30) scale(1,1)"><g><path fill="none" stroke="none"/><text fill="#000000" stroke="none" font-family="Arial" font-size="13px" font-style="normal" font-weight="bold" text-decoration="none" x="507.320556640625" y="320">Supprimer une catégorie</text></g></g><g transform="translate(-22,-30) scale(1,1)"><path fill="#C0C0C0" stroke="none" d="M 479 176 C 479 166.6111584 528.9202448 159 590.5 159 C 652.0797552 159 702 166.6111584 702 176 C 702 185.3888416 652.0797552 193 590.5 193 C 528.9202448 193 479 185.3888416 479 176 Z" opacity="0.2"/></g><g transform="translate(-22,-30) scale(1,1)"><path fill="#ffffff" stroke="none" d="M 472 169 C 472 159.6111584 521.9202448 152 583.5 152 C 645.0797552 152 695 159.6111584 695 169 C 695 178.3888416 645.0797552 186 583.5 186 C 521.9202448 186 472 178.3888416 472 169 Z"/></g><g transform="translate(-22,-30) scale(1,1)"><path fill="none" stroke="#000000" d="M 472 169 C 472 159.6111584 521.9202448 152 583.5 152 C 645.0797552 152 695 159.6111584 695 169 C 695 178.3888416 645.0797552 186 583.5 186 C 521.9202448 186 472 178.3888416 472 169 Z" stroke-miterlimit="10"/></g><g transform="translate(-22,-30) scale(1,1)"><g><path fill="none" stroke="none"/><text fill="#000000" stroke="none" font-family="Arial" font-size="13px" font-style="normal" font-weight="bold" text-decoration="none" x="514.485107421875" y="176">Consulter une catégorie</text></g></g><g transform="translate(-22,-30) scale(1,1)"><path fill="#C0C0C0" stroke="none" d="M 503 224 C 503 214.6111584 544.413656 207 595.5 207 C 646.586344 207 688 214.6111584 688 224 C 688 233.3888416 646.586344 241 595.5 241 C 544.413656 241 503 233.3888416 503 224 Z" opacity="0.2"/></g><g transform="translate(-22,-30) scale(1,1)"><path fill="#ffffff" stroke="none" d="M 496 217 C 496 207.6111584 537.413656 200 588.5 200 C 639.586344 200 681 207.6111584 681 217 C 681 226.3888416 639.586344 234 588.5 234 C 537.413656 234 496 226.3888416 496 217 Z"/></g><g transform="translate(-22,-30) scale(1,1)"><path fill="none" stroke="#000000" d="M 496 217 C 496 207.6111584 537.413656 200 588.5 200 C 639.586344 200 681 207.6111584 681 217 C 681 226.3888416 639.586344 234 588.5 234 C 537.413656 234 496 226.3888416 496 217 Z" stroke-miterlimit="10"/></g><g transform="translate(-22,-30) scale(1,1)"><g><path fill="none" stroke="none"/><text fill="#000000" stroke="none" font-family="Arial" font-size="13px" font-style="normal" font-weight="bold" text-decoration="none" x="531.050537109375" y="224">Créer une catégorie</text></g></g><g transform="translate(-22,-30) scale(1,1)"><path fill="#C0C0C0" stroke="none" d="M 495 272 C 495 262.6111584 537.3090864 255 589.5 255 C 641.6909136 255 684 262.6111584 684 272 C 684 281.3888416 641.6909136 289 589.5 289 C 537.3090864 289 495 281.3888416 495 272 Z" opacity="0.2"/></g><g transform="translate(-22,-30) scale(1,1)"><path fill="#ffffff" stroke="none" d="M 488 265 C 488 255.6111584 530.3090864 248 582.5 248 C 634.6909136 248 677 255.6111584 677 265 C 677 274.3888416 634.6909136 282 582.5 282 C 530.3090864 282 488 274.3888416 488 265 Z"/></g><g transform="translate(-22,-30) scale(1,1)"><path fill="none" stroke="#000000" d="M 488 265 C 488 255.6111584 530.3090864 248 582.5 248 C 634.6909136 248 677 255.6111584 677 265 C 677 274.3888416 634.6909136 282 582.5 282 C 530.3090864 282 488 274.3888416 488 265 Z" stroke-miterlimit="10"/></g><g transform="translate(-22,-30) scale(1,1)"><g><path fill="none" stroke="none"/><text fill="#000000" stroke="none" font-family="Arial" font-size="13px" font-style="normal" font-weight="bold" text-decoration="none" x="524.32373046875" y="272">Éditer une catégorie</text></g></g><g transform="translate(-22,-30) scale(1,1)"><path fill="none" stroke="#000000" d="M 106 531 L 559 187" stroke-miterlimit="10"/></g><g transform="translate(-22,-30) scale(1,1)"><path fill="none" stroke="#000000" d="M 106 534 L 561 235" stroke-miterlimit="10"/></g><g transform="translate(-22,-30) scale(1,1)"><path fill="none" stroke="#000000" d="M 106 538 L 551 283" stroke-miterlimit="10"/></g><g transform="translate(-22,-30) scale(1,1)"><path fill="none" stroke="#000000" d="M 106 541 L 541 331" stroke-miterlimit="10"/></g><g transform="translate(-22,-30) scale(1,1)"><path fill="#C0C0C0" stroke="none" d="M 487 552 C 487 542.6111584 536.0248144 535 596.5 535 C 656.9751856 535 706 542.6111584 706 552 C 706 561.3888416 656.9751856 569 596.5 569 C 536.0248144 569 487 561.3888416 487 552 Z" opacity="0.2"/></g><g transform="translate(-22,-30) scale(1,1)"><path fill="#ffffff" stroke="none" d="M 480 545 C 480 535.6111584 529.0248144 528 589.5 528 C 649.9751856 528 699 535.6111584 699 545 C 699 554.3888416 649.9751856 562 589.5 562 C 529.0248144 562 480 554.3888416 480 545 Z"/></g><g transform="translate(-22,-30) scale(1,1)"><path fill="none" stroke="#000000" d="M 480 545 C 480 535.6111584 529.0248144 528 589.5 528 C 649.9751856 528 699 535.6111584 699 545 C 699 554.3888416 649.9751856 562 589.5 562 C 529.0248144 562 480 554.3888416 480 545 Z" stroke-miterlimit="10"/></g><g transform="translate(-22,-30) scale(1,1)"><g><path fill="none" stroke="none"/><text fill="#000000" stroke="none" font-family="Arial" font-size="13px" font-style="normal" font-weight="bold" text-decoration="none" x="522.294189453125" y="552">Consulter un document</text></g></g><g transform="translate(-22,-30) scale(1,1)"><path fill="#C0C0C0" stroke="none" d="M 503 600 C 503 590.6111584 543.5182256 583 593.5 583 C 643.4817744 583 684 590.6111584 684 600 C 684 609.3888416 643.4817744 617 593.5 617 C 543.5182256 617 503 609.3888416 503 600 Z" opacity="0.2"/></g><g transform="translate(-22,-30) scale(1,1)"><path fill="#ffffff" stroke="none" d="M 496 593 C 496 583.6111584 536.5182256 576 586.5 576 C 636.4817744 576 677 583.6111584 677 593 C 677 602.3888416 636.4817744 610 586.5 610 C 536.5182256 610 496 602.3888416 496 593 Z"/></g><g transform="translate(-22,-30) scale(1,1)"><path fill="none" stroke="#000000" d="M 496 593 C 496 583.6111584 536.5182256 576 586.5 576 C 636.4817744 576 677 583.6111584 677 593 C 677 602.3888416 636.4817744 610 586.5 610 C 536.5182256 610 496 602.3888416 496 593 Z" stroke-miterlimit="10"/></g><g transform="translate(-22,-30) scale(1,1)"><g><path fill="none" stroke="none"/><text fill="#000000" stroke="none" font-family="Arial" font-size="13px" font-style="normal" font-weight="bold" text-decoration="none" x="530.859619140625" y="600">Créer un document</text></g></g><g transform="translate(-22,-30) scale(1,1)"><path fill="#C0C0C0" stroke="none" d="M 503 648 C 503 638.6111584 544.413656 631 595.5 631 C 646.586344 631 688 638.6111584 688 648 C 688 657.3888416 646.586344 665 595.5 665 C 544.413656 665 503 657.3888416 503 648 Z" opacity="0.2"/></g><g transform="translate(-22,-30) scale(1,1)"><path fill="#ffffff" stroke="none" d="M 496 641 C 496 631.6111584 537.413656 624 588.5 624 C 639.586344 624 681 631.6111584 681 641 C 681 650.3888416 639.586344 658 588.5 658 C 537.413656 658 496 650.3888416 496 641 Z"/></g><g transform="translate(-22,-30) scale(1,1)"><path fill="none" stroke="#000000" d="M 496 641 C 496 631.6111584 537.413656 624 588.5 624 C 639.586344 624 681 631.6111584 681 641 C 681 650.3888416 639.586344 658 588.5 658 C 537.413656 658 496 650.3888416 496 641 Z" stroke-miterlimit="10"/></g><g transform="translate(-22,-30) scale(1,1)"><g><path fill="none" stroke="none"/><text fill="#000000" stroke="none" font-family="Arial" font-size="13px" font-style="normal" font-weight="bold" text-decoration="none" x="532.1328125" y="648">Éditer un document</text></g></g><g transform="translate(-22,-30) scale(1,1)"><path fill="#C0C0C0" stroke="none" d="M 479 696 C 479 686.6111584 529.36796 679 591.5 679 C 653.63204 679 704 686.6111584 704 696 C 704 705.3888416 653.63204 713 591.5 713 C 529.36796 713 479 705.3888416 479 696 Z" opacity="0.2"/></g><g transform="translate(-22,-30) scale(1,1)"><path fill="#ffffff" stroke="none" d="M 472 689 C 472 679.6111584 522.36796 672 584.5 672 C 646.63204 672 697 679.6111584 697 689 C 697 698.3888416 646.63204 706 584.5 706 C 522.36796 706 472 698.3888416 472 689 Z"/></g><g transform="translate(-22,-30) scale(1,1)"><path fill="none" stroke="#000000" d="M 472 689 C 472 679.6111584 522.36796 672 584.5 672 C 646.63204 672 697 679.6111584 697 689 C 697 698.3888416 646.63204 706 584.5 706 C 522.36796 706 472 698.3888416 472 689 Z" stroke-miterlimit="10"/></g><g transform="translate(-22,-30) scale(1,1)"><g><path fill="none" stroke="none"/><text fill="#000000" stroke="none" font-family="Arial" font-size="13px" font-style="normal" font-weight="bold" text-decoration="none" x="515.129638671875" y="696">Supprimer un document</text></g></g><g transform="translate(-22,-30) scale(1,1)"><path fill="#C0C0C0" stroke="none" d="M 439 904 C 439 894.6111584 507.276568 887 591.5 887 C 675.723432 887 744 894.6111584 744 904 C 744 913.3888416 675.723432 921 591.5 921 C 507.276568 921 439 913.3888416 439 904 Z" opacity="0.2"/></g><g transform="translate(-22,-30) scale(1,1)"><path fill="#ffffff" stroke="none" d="M 432 897 C 432 887.6111584 500.276568 880 584.5 880 C 668.723432 880 737 887.6111584 737 897 C 737 906.3888416 668.723432 914 584.5 914 C 500.276568 914 432 906.3888416 432 897 Z"/></g><g transform="translate(-22,-30) scale(1,1)"><path fill="none" stroke="#000000" d="M 432 897 C 432 887.6111584 500.276568 880 584.5 880 C 668.723432 880 737 887.6111584 737 897 C 737 906.3888416 668.723432 914 584.5 914 C 500.276568 914 432 906.3888416 432 897 Z" stroke-miterlimit="10"/></g><g transform="translate(-22,-30) scale(1,1)"><g><path fill="none" stroke="none"/><text fill="#000000" stroke="none" font-family="Arial" font-size="13px" font-style="normal" font-weight="bold" text-decoration="none" x="488.025146484375" y="904">Consulter le catalogue de médias</text></g></g><g transform="translate(-22,-30) scale(1,1)"><path fill="#C0C0C0" stroke="none" d="M 495 952 C 495 942.6111584 536.1897984 935 587 935 C 637.8102016 935 679 942.6111584 679 952 C 679 961.3888416 637.8102016 969 587 969 C 536.1897984 969 495 961.3888416 495 952 Z" opacity="0.2"/></g><g transform="translate(-22,-30) scale(1,1)"><path fill="#ffffff" stroke="none" d="M 488 945 C 488 935.6111584 529.1897984 928 580 928 C 630.8102016 928 672 935.6111584 672 945 C 672 954.3888416 630.8102016 962 580 962 C 529.1897984 962 488 954.3888416 488 945 Z"/></g><g transform="translate(-22,-30) scale(1,1)"><path fill="none" stroke="#000000" d="M 488 945 C 488 935.6111584 529.1897984 928 580 928 C 630.8102016 928 672 935.6111584 672 945 C 672 954.3888416 630.8102016 962 580 962 C 529.1897984 962 488 954.3888416 488 945 Z" stroke-miterlimit="10"/></g><g transform="translate(-22,-30) scale(1,1)"><g><path fill="none" stroke="none"/><text fill="#000000" stroke="none" font-family="Arial" font-size="13px" font-style="normal" font-weight="bold" text-decoration="none" x="523.635986328125" y="952">Consulter un média</text></g></g><g transform="translate(-22,-30) scale(1,1)"><path fill="#C0C0C0" stroke="none" d="M 511 1000 C 511 990.6111584 543.6832096 983 584 983 C 624.3167904 983 657 990.6111584 657 1000 C 657 1009.3888416 624.3167904 1017 584 1017 C 543.6832096 1017 511 1009.3888416 511 1000 Z" opacity="0.2"/></g><g transform="translate(-22,-30) scale(1,1)"><path fill="#ffffff" stroke="none" d="M 504 993 C 504 983.6111584 536.6832096 976 577 976 C 617.3167904 976 650 983.6111584 650 993 C 650 1002.3888416 617.3167904 1010 577 1010 C 536.6832096 1010 504 1002.3888416 504 993 Z"/></g><g transform="translate(-22,-30) scale(1,1)"><path fill="none" stroke="#000000" d="M 504 993 C 504 983.6111584 536.6832096 976 577 976 C 617.3167904 976 650 983.6111584 650 993 C 650 1002.3888416 617.3167904 1010 577 1010 C 536.6832096 1010 504 1002.3888416 504 993 Z" stroke-miterlimit="10"/></g><g transform="translate(-22,-30) scale(1,1)"><g><path fill="none" stroke="none"/><text fill="#000000" stroke="none" font-family="Arial" font-size="13px" font-style="normal" font-weight="bold" text-decoration="none" x="532.201416015625" y="1000">Créer un média</text></g></g><g transform="translate(-22,-30) scale(1,1)"><path fill="#C0C0C0" stroke="none" d="M 487 1048 C 487 1038.6111584 529.532944 1031 582 1031 C 634.467056 1031 677 1038.6111584 677 1048 C 677 1057.3888416 634.467056 1065 582 1065 C 529.532944 1065 487 1057.3888416 487 1048 Z" opacity="0.2"/></g><g transform="translate(-22,-30) scale(1,1)"><path fill="#ffffff" stroke="none" d="M 480 1041 C 480 1031.6111584 522.532944 1024 575 1024 C 627.467056 1024 670 1031.6111584 670 1041 C 670 1050.3888416 627.467056 1058 575 1058 C 522.532944 1058 480 1050.3888416 480 1041 Z"/></g><g transform="translate(-22,-30) scale(1,1)"><path fill="none" stroke="#000000" d="M 480 1041 C 480 1031.6111584 522.532944 1024 575 1024 C 627.467056 1024 670 1031.6111584 670 1041 C 670 1050.3888416 627.467056 1058 575 1058 C 522.532944 1058 480 1050.3888416 480 1041 Z" stroke-miterlimit="10"/></g><g transform="translate(-22,-30) scale(1,1)"><g><path fill="none" stroke="none"/><text fill="#000000" stroke="none" font-family="Arial" font-size="13px" font-style="normal" font-weight="bold" text-decoration="none" x="516.471435546875" y="1048">Supprimer un média</text></g></g><g transform="translate(-22,-30) scale(1,1)"><path fill="#C0C0C0" stroke="none" d="M 431 1096 C 431 1086.6111584 500.8435712 1079 587 1079 C 673.1564288 1079 743 1086.6111584 743 1096 C 743 1105.3888416 673.1564288 1113 587 1113 C 500.8435712 1113 431 1105.3888416 431 1096 Z" opacity="0.2"/></g><g transform="translate(-22,-30) scale(1,1)"><path fill="#ffffff" stroke="none" d="M 424 1089 C 424 1079.6111584 493.8435712 1072 580 1072 C 666.1564288 1072 736 1079.6111584 736 1089 C 736 1098.3888416 666.1564288 1106 580 1106 C 493.8435712 1106 424 1098.3888416 424 1089 Z"/></g><g transform="translate(-22,-30) scale(1,1)"><path fill="none" stroke="#000000" d="M 424 1089 C 424 1079.6111584 493.8435712 1072 580 1072 C 666.1564288 1072 736 1079.6111584 736 1089 C 736 1098.3888416 666.1564288 1106 580 1106 C 493.8435712 1106 424 1098.3888416 424 1089 Z" stroke-miterlimit="10"/></g><g transform="translate(-22,-30) scale(1,1)"><g><path fill="none" stroke="none"/><text fill="#000000" stroke="none" font-family="Arial" font-size="13px" font-style="normal" font-weight="bold" text-decoration="none" x="481.722412109375" y="1096">Associer un média à un document</text></g></g><g transform="translate(-22,-30) scale(1,1)"><path fill="#C0C0C0" stroke="none" d="M 423 504 C 423 494.6111584 500.6785872 487 596.5 487 C 692.3214128 487 770 494.6111584 770 504 C 770 513.3888416 692.3214128 521 596.5 521 C 500.6785872 521 423 513.3888416 423 504 Z" opacity="0.2"/></g><g transform="translate(-22,-30) scale(1,1)"><path fill="#ffffff" stroke="none" d="M 416 497 C 416 487.6111584 493.6785872 480 589.5 480 C 685.3214128 480 763 487.6111584 763 497 C 763 506.3888416 685.3214128 514 589.5 514 C 493.6785872 514 416 506.3888416 416 497 Z"/></g><g transform="translate(-22,-30) scale(1,1)"><path fill="none" stroke="#000000" d="M 416 497 C 416 487.6111584 493.6785872 480 589.5 480 C 685.3214128 480 763 487.6111584 763 497 C 763 506.3888416 685.3214128 514 589.5 514 C 493.6785872 514 416 506.3888416 416 497 Z" stroke-miterlimit="10"/></g><g transform="translate(-22,-30) scale(1,1)"><g><path fill="none" stroke="none"/><text fill="#000000" stroke="none" font-family="Arial" font-size="13px" font-style="normal" font-weight="bold" text-decoration="none" x="480.012451171875" y="504">Consulter un catalogue de documents</text></g></g><g transform="translate(-22,-30) scale(1,1)"><path fill="#C0C0C0" stroke="none" d="M 415 744 C 415 734.6111584 493.5740176 727 590.5 727 C 687.4259824000001 727 766 734.6111584 766 744 C 766 753.3888416 687.4259824000001 761 590.5 761 C 493.5740176 761 415 753.3888416 415 744 Z" opacity="0.2"/></g><g transform="translate(-22,-30) scale(1,1)"><path fill="#ffffff" stroke="none" d="M 408 737 C 408 727.6111584 486.5740176 720 583.5 720 C 680.4259824000001 720 759 727.6111584 759 737 C 759 746.3888416 680.4259824000001 754 583.5 754 C 486.5740176 754 408 746.3888416 408 737 Z"/></g><g transform="translate(-22,-30) scale(1,1)"><path fill="none" stroke="#000000" d="M 408 737 C 408 727.6111584 486.5740176 720 583.5 720 C 680.4259824000001 720 759 727.6111584 759 737 C 759 746.3888416 680.4259824000001 754 583.5 754 C 486.5740176 754 408 746.3888416 408 737 Z" stroke-miterlimit="10"/></g><g transform="translate(-22,-30) scale(1,1)"><g><path fill="none" stroke="none"/><text fill="#000000" stroke="none" font-family="Arial" font-size="13px" font-style="normal" font-weight="bold" text-decoration="none" x="472.571533203125" y="744">Associer un document à une catégorie</text></g></g><g transform="translate(-22,-30) scale(1,1)"><path fill="none" stroke="#000000" d="M 106 555 L 438 515" stroke-miterlimit="10"/></g><g transform="translate(-22,-30) scale(1,1)"><path fill="none" stroke="#000000" d="M 106 558 L 479 548" stroke-miterlimit="10"/></g><g transform="translate(-22,-30) scale(1,1)"><path fill="none" stroke="#000000" d="M 106 561 L 495 587" stroke-miterlimit="10"/></g><g transform="translate(-22,-30) scale(1,1)"><path fill="none" stroke="#000000" d="M 106 565 L 495 626" stroke-miterlimit="10"/></g><g transform="translate(-22,-30) scale(1,1)"><path fill="none" stroke="#000000" d="M 106 568 L 513 671" stroke-miterlimit="10"/></g><g transform="translate(-22,-30) scale(1,1)"><path fill="none" stroke="#000000" d="M 106 572 L 531 719" stroke-miterlimit="10"/></g><g transform="translate(-22,-30) scale(1,1)"><path fill="none" stroke="#000000" d="M 106 584 L 557 879" stroke-miterlimit="10"/></g><g transform="translate(-22,-30) scale(1,1)"><path fill="none" stroke="#000000" d="M 106 587 L 556 927" stroke-miterlimit="10"/></g><g transform="translate(-22,-30) scale(1,1)"><path fill="none" stroke="#000000" d="M 106 591 L 556 975" stroke-miterlimit="10"/></g><g transform="translate(-22,-30) scale(1,1)"><path fill="none" stroke="#000000" d="M 106 595 L 556 1023" stroke-miterlimit="10"/></g><g transform="translate(-22,-30) scale(1,1)"><path fill="none" stroke="#000000" d="M 106 598 L 563 1071" stroke-miterlimit="10"/></g></g></svg>